<?xml version="1.0" encoding="UTF-8"?>
<!-- Generator: visioncortex VTracer 0.6.12 -->
<svg version="1.1" xmlns="http://www.w3.org/2000/svg" width="1360" height="380">
<path d="M0 0 C4.245 2.038 6.041 3.939 8 8.062 C9.754 11.128 10.681 11.888 14.074 13.078 C17.706 13.816 21.339 14.427 25 15 C41.271 18.506 58.592 28.601 70.438 40.125 C74.557 43.976 74.557 43.976 78.5 44.188 C79.077 43.992 79.077 43.992 82 43 C95.169 39.663 108.547 39.649 122 40.75 C122.943 40.824 123.885 40.898 124.856 40.974 C138.981 42.304 152.927 47.642 165 55 C165.849 55.49 166.699 55.98 167.574 56.484 C175.262 61.09 181.618 66.785 188 73 C188.469 73.454 188.469 73.454 190.84 75.754 C196.127 80.964 201.075 85.945 204.562 92.562 C205.733 94.777 206.827 96.787 208.406 98.734 C210.804 102.144 212.311 105.862 213.938 109.688 C214.272 110.433 214.607 111.179 214.951 111.947 C220.515 124.994 222.684 138.215 222.521 152.302 C222.5 154.501 222.521 156.696 222.547 158.895 C222.588 180.448 215.364 198.954 204 217 C203.456 217.969 202.912 218.939 202.352 219.938 C201.906 220.618 201.46 221.299 201 222 C200.34 222 199.68 222 199 222 C198.814 222.681 198.629 223.361 198.438 224.062 C196.408 228.21 193.328 230.86 190 234 C189.175 234.846 188.35 235.691 187.5 236.562 C173.723 249.995 157.575 259.829 139 265 C138.046 265.286 137.092 265.572 136.109 265.867 C129.651 267.606 123.376 268.276 116.727 268.551 C115.82 268.591 114.914 268.631 113.98 268.672 C103.276 269.116 92.567 269.282 81.855 269.446 C75.773 269.539 69.691 269.641 63.609 269.746 C63.014 269.756 63.014 269.756 59.999 269.808 C50.683 269.974 41.374 270.246 32.062 270.562 C-26.5 272.38 -26.5 272.38 -45 267 C-45.587 266.832 -45.587 266.832 -48.559 265.984 C-51.42 265.084 -54.203 264.083 -57 263 C-57.808 262.716 -58.616 262.433 -59.449 262.141 C-90.846 250.613 -116.338 223.631 -130.477 193.895 C-137.837 176.803 -141.617 159.544 -141.5 141 C-141.498 140.235 -141.496 139.471 -141.494 138.683 C-141.287 101.99 -125.738 70.738 -100 45 C-99.98 42.645 -99.98 42.645 -100.188 39.812 C-100.286 34.833 -99.593 32.083 -96.348 28.305 C-93.346 25.399 -91.427 25.064 -87.25 24.438 C-82.584 24.578 -79.853 26.68 -76.582 29.867 C-73.953 33.412 -73.383 36.662 -74 41 C-75.625 44.313 -75.625 44.313 -78 47 C-78.681 47.784 -79.361 48.568 -80.062 49.375 C-83.422 51.234 -84.53 51.004 -88.25 50.688 C-91.694 50.577 -93.448 50.642 -96.363 52.531 C-98.775 54.896 -100.887 57.365 -103 60 C-103.813 60.955 -104.627 61.91 -105.465 62.895 C-115.232 74.67 -122.19 88.517 -127 103 C-127.243 103.718 -127.486 104.436 -127.736 105.176 C-129.855 111.758 -130.954 118.265 -131.75 125.125 C-131.878 126.225 -132.006 127.325 -132.137 128.459 C-133.066 137.175 -133.174 145.285 -132 154 C-131.957 154.334 -131.957 154.334 -131.742 156.026 C-127.635 187.042 -112.627 215.507 -88.18 235.281 C-85.499 237.267 -82.772 239.145 -80 241 C-79.599 241.291 -79.599 241.291 -77.57 242.762 C-57.958 256.356 -33.69 261.216 -10.25 261.125 C-8.931 261.122 -7.611 261.118 -6.252 261.115 C25.034 260.987 56.322 260.242 87.588 259.186 C89.996 259.105 92.405 259.026 94.813 258.949 C123.317 258.026 148.474 255.759 171.891 237.504 C174 236 174 236 176 236 C176 235.34 176 234.68 176 234 C177.434 232.625 177.434 232.625 179.438 231 C187.266 224.309 193.369 217.192 198 208 C198.682 206.851 199.369 205.705 200.062 204.562 C202.531 200.231 204.299 195.678 206 191 C206.171 190.539 206.171 190.539 207.035 188.207 C215.832 162.352 214.144 134.869 203 110 C202.785 109.504 202.785 109.504 201.699 106.996 C197.878 98.741 192.71 92.001 187 85 C186.743 84.66 186.743 84.66 185.445 82.941 C178.44 73.968 167.655 67.766 158 62 C157.384 61.622 156.768 61.245 156.133 60.855 C134.73 48.918 108.275 48.687 84.938 53.125 C84.504 53.202 84.504 53.202 82.312 53.59 C80.351 53.938 78.394 54.31 76.438 54.688 C71.617 53.723 69.41 51.002 65.926 47.645 C50.905 34.068 29.27 23.837 9.125 21.562 C5.306 22.097 3.934 23.58 1 26 C-3.412 27.307 -5.4 27.244 -9.688 25.5 C-13.392 23.05 -15.701 20.273 -17 16 C-17.382 12.725 -17.177 10.089 -16 7 C-11.426 1.55 -7.129 -0.594 0 0 Z M-90 33 C-90.66 34.98 -91.32 36.96 -92 39 C-90.68 40.32 -89.36 41.64 -88 43 C-83.294 41.552 -83.294 41.552 -82 39.125 C-82 37 -82 37 -83.125 34.75 C-85 33 -85 33 -87.688 32.75 C-88.451 32.833 -89.214 32.915 -90 33 Z " fill="#ffffff" transform="translate(220,9)"/>
<path d="M0 0 C0.669 0.193 1.338 0.387 2.027 0.586 C18.629 5.521 32.436 14.059 45.055 25.934 C49.414 29.985 49.414 29.985 52.375 30.062 C53.241 29.712 54.107 29.361 55 29 C56.414 28.512 57.831 28.034 59.25 27.562 C60.025 27.3 60.799 27.037 61.598 26.766 C67.378 24.923 72.899 23.687 79 24 C79.688 26.187 79.688 26.187 80 29 C79.055 30.698 78.046 32.362 77 34 C76.1 35.677 75.209 37.36 74.328 39.047 C73.302 40.948 72.276 42.849 71.25 44.75 C71 45.235 71 45.235 69.734 47.691 C65.884 54.714 65.884 54.714 61.445 56.148 C60.308 56.099 59.171 56.05 58 56 C57.542 55.999 57.542 55.999 55.227 55.992 C54.368 55.954 53.51 55.915 52.625 55.875 C43.45 55.85 37.613 58.494 30.949 64.809 C25.858 70.532 23.854 76.804 23.875 84.375 C23.876 85.344 23.878 86.314 23.879 87.312 C24 90 24 90 24.812 93.375 C25 96 25 96 23.078 98.27 C19.383 101.756 15.149 104.495 10.938 107.312 C10.09 107.886 9.242 108.459 8.369 109.05 C5.917 110.706 3.459 112.354 1 114 C0.385 114.412 -0.229 114.825 -0.862 115.25 C-3.312 116.894 -5.767 118.531 -8.227 120.16 C-10.206 121.473 -12.179 122.794 -14.148 124.121 C-17.088 126.099 -20.042 128.051 -23 130 C-23.346 130.241 -23.346 130.241 -25.098 131.461 C-28.17 133.473 -29.569 134.075 -33.25 133.438 C-37.494 131.219 -37.494 131.219 -39 129 C-40.441 122.388 -39.707 116.064 -39.188 109.375 C-39.104 108.148 -39.021 106.921 -38.936 105.656 C-38.891 105.067 -38.891 105.067 -38.668 102.086 C-38.628 101.55 -38.628 101.55 -38.427 98.837 C-38.014 96.092 -37.503 94.317 -36 92 C-35.216 91.546 -34.433 91.093 -33.625 90.625 C-30.082 88.432 -28.797 86.794 -27 83 C-26.212 76.534 -26.092 71.419 -30 66 C-34 62.571 -37.542 61.229 -42.699 60.812 C-45.986 61.08 -48.262 62.387 -50.98 64.188 C-55.159 65.868 -59.11 64.033 -63.074 62.434 C-64.615 61.775 -66.152 61.109 -67.688 60.438 C-69.381 59.711 -71.075 58.984 -72.77 58.258 C-73.202 58.071 -73.202 58.071 -75.389 57.126 C-79.543 55.335 -83.708 53.572 -87.875 51.812 C-88.661 51.478 -89.447 51.143 -90.256 50.797 C-93.813 49.291 -97.366 47.84 -101.012 46.562 C-101.598 46.356 -101.598 46.356 -104.562 45.312 C-105.574 44.979 -106.586 44.645 -107.629 44.301 C-110 43 -110 43 -111.34 40.355 C-111.558 39.578 -111.776 38.801 -112 38 C-84.408 5.44 -42.587 -12.437 0 0 Z " fill="#ffffff" transform="translate(238,45)"/>
<path d="M0 0 C2.017 2.065 3.59 3.93 5.25 6.25 C5.722 6.88 6.194 7.509 6.68 8.158 C7.657 9.463 8.628 10.773 9.592 12.088 C11.683 14.927 13.842 17.711 16 20.5 C16.826 21.575 17.651 22.651 18.477 23.727 C25.382 32.702 32.435 41.563 39.521 50.396 C43.309 55.122 47.05 59.882 50.779 64.654 C54.355 69.215 58.015 73.704 61.688 78.188 C65.928 83.371 69.962 88.634 73.844 94.094 C77.143 98.541 80.681 102.789 84.198 107.065 C88.182 111.93 91.919 116.896 95.512 122.059 C97 124 97 124 99 125 C98.838 124.275 98.676 123.549 98.508 122.802 C98.033 120.182 97.872 117.83 97.866 115.174 C97.864 114.702 97.864 114.702 97.853 112.315 C97.854 111.292 97.854 110.269 97.855 109.215 C97.851 108.128 97.848 107.041 97.845 105.922 C97.835 102.332 97.833 98.742 97.832 95.152 C97.829 92.658 97.825 90.164 97.822 87.669 C97.816 82.443 97.814 77.217 97.815 71.991 C97.815 65.952 97.805 59.913 97.789 53.874 C97.774 48.059 97.771 42.244 97.771 36.429 C97.77 33.957 97.766 31.484 97.758 29.012 C97.748 25.56 97.751 22.108 97.757 18.656 C97.751 17.631 97.746 16.606 97.74 15.55 C97.744 14.609 97.748 13.668 97.753 12.699 C97.752 11.884 97.752 11.068 97.751 10.227 C98.026 7.766 98.77 6.132 100 4 C106.657 3.949 113.314 3.914 119.971 3.89 C122.237 3.88 124.503 3.866 126.769 3.849 C130.02 3.825 133.272 3.814 136.523 3.805 C137.032 3.8 137.032 3.8 139.608 3.773 C140.548 3.773 141.489 3.773 142.458 3.773 C143.289 3.769 144.12 3.764 144.975 3.759 C147 4 147 4 149 6 C149.198 8.591 149.269 11.076 149.254 13.668 C149.256 14.068 149.256 14.068 149.263 16.094 C149.271 18.792 149.265 21.49 149.259 24.188 C149.261 26.116 149.265 28.044 149.269 29.972 C149.279 35.219 149.275 40.467 149.269 45.715 C149.264 51.197 149.268 56.678 149.271 62.16 C149.275 71.367 149.27 80.574 149.261 89.781 C149.25 100.439 149.253 111.096 149.264 121.754 C149.273 130.89 149.275 140.026 149.27 149.163 C149.266 154.626 149.266 160.088 149.273 165.551 C149.278 170.686 149.274 175.821 149.263 180.956 C149.26 182.845 149.261 184.734 149.265 186.623 C149.271 189.193 149.264 191.762 149.254 194.332 C149.256 194.71 149.256 194.71 149.267 196.621 C149.228 201.772 149.228 201.772 147 204 C145.025 204.348 145.025 204.348 142.573 204.481 C142.114 204.507 142.114 204.507 139.788 204.637 C135.545 204.806 131.302 204.937 127.055 205.03 C124.829 205.093 122.603 205.188 120.379 205.317 C102.483 206.34 102.483 206.34 96.747 202.486 C92.858 198.825 89.99 194.629 87.271 190.058 C85.254 186.792 82.844 183.859 80.438 180.875 C78.168 177.928 76.001 175.001 73.973 171.883 C72.154 169.225 70.289 167.241 68 165 C66.495 163.104 65.018 161.184 63.562 159.25 C59.704 154.164 55.736 149.185 51.688 144.25 C46.615 138.056 41.718 131.749 36.885 125.367 C33.102 120.393 29.212 115.52 25.25 110.688 C19.543 103.722 14.115 96.597 8.78 89.34 C7.544 87.662 6.303 85.987 5.062 84.312 C4.332 83.319 3.601 82.325 2.848 81.301 C1 79 1 79 -1 78 C-0.965 78.331 -0.965 78.331 -0.786 80.006 C-0.108 86.816 0.148 93.535 0.145 100.375 C0.149 101.453 0.152 102.53 0.155 103.641 C0.165 107.166 0.167 110.69 0.168 114.215 C0.171 116.678 0.175 119.142 0.178 121.605 C0.184 126.748 0.186 131.891 0.185 137.034 C0.185 143.631 0.199 150.227 0.216 156.824 C0.227 161.901 0.229 166.979 0.229 172.057 C0.23 174.49 0.234 176.923 0.242 179.357 C0.252 182.748 0.249 186.139 0.243 189.531 C0.249 190.537 0.254 191.544 0.26 192.58 C0.256 193.504 0.252 194.427 0.247 195.379 C0.248 196.18 0.248 196.98 0.249 197.805 C-0.028 200.248 -0.781 201.882 -2 204 C-8.657 204.051 -15.314 204.086 -21.971 204.11 C-24.237 204.12 -26.503 204.134 -28.769 204.151 C-32.02 204.175 -35.272 204.186 -38.523 204.195 C-39.032 204.2 -39.032 204.2 -41.608 204.227 C-42.548 204.227 -43.489 204.227 -44.458 204.227 C-45.289 204.231 -46.12 204.236 -46.975 204.241 C-49 204 -49 204 -51 202 C-51.202 199.499 -51.278 197.107 -51.267 194.605 C-51.272 193.833 -51.276 193.062 -51.281 192.267 C-51.294 189.668 -51.292 187.07 -51.291 184.471 C-51.297 182.613 -51.303 180.756 -51.311 178.899 C-51.329 173.843 -51.333 168.787 -51.335 163.731 C-51.336 159.516 -51.344 155.302 -51.351 151.087 C-51.367 141.146 -51.372 131.205 -51.371 121.264 C-51.369 110.996 -51.391 100.729 -51.422 90.461 C-51.448 81.657 -51.459 72.852 -51.458 64.048 C-51.457 58.785 -51.463 53.521 -51.484 48.258 C-51.503 43.309 -51.504 38.361 -51.489 33.413 C-51.487 31.593 -51.492 29.774 -51.504 27.955 C-51.519 25.477 -51.51 23 -51.494 20.522 C-51.505 19.797 -51.515 19.072 -51.526 18.325 C-51.481 15.122 -51.432 13.448 -49.159 11.094 C-46.314 9.652 -43.523 8.859 -40.434 8.062 C-40.117 7.979 -40.117 7.979 -38.512 7.559 C-36.489 7.031 -34.464 6.515 -32.438 6 C-30.444 5.484 -28.45 4.965 -26.457 4.446 C-24.517 3.943 -22.575 3.448 -20.632 2.953 C-17.368 2.097 -14.144 1.151 -10.91 0.188 C-6.914 -0.881 -3.962 -1.617 0 0 Z " fill="#ffffff" transform="translate(873,50)"/>
<path d="M0 0 C0.457 -0.003 0.457 -0.003 2.771 -0.019 C3.76 -0.015 4.75 -0.011 5.77 -0.007 C6.783 -0.009 7.796 -0.011 8.841 -0.013 C10.986 -0.014 13.131 -0.01 15.276 -0.002 C18.569 0.009 21.86 -0.002 25.152 -0.015 C27.233 -0.013 29.314 -0.011 31.395 -0.007 C32.384 -0.011 33.374 -0.015 34.393 -0.019 C35.308 -0.013 36.222 -0.006 37.164 0 C37.567 0.001 37.567 0.001 39.609 0.005 C41.582 0.259 41.582 0.259 43.582 2.259 C43.777 4.865 43.847 7.364 43.829 9.971 C43.832 10.777 43.834 11.582 43.837 12.412 C43.842 15.126 43.834 17.84 43.825 20.554 C43.826 22.493 43.828 24.433 43.831 26.373 C43.836 31.651 43.828 36.93 43.818 42.209 C43.809 47.722 43.811 53.234 43.811 58.747 C43.81 68.006 43.801 77.264 43.788 86.522 C43.772 97.242 43.767 107.962 43.768 118.682 C43.768 128.976 43.763 139.269 43.755 149.562 C43.751 153.951 43.749 158.341 43.749 162.731 C43.748 167.894 43.742 173.058 43.732 178.221 C43.729 180.122 43.728 182.023 43.728 183.924 C43.729 186.507 43.723 189.09 43.716 191.673 C43.717 192.435 43.719 193.198 43.72 193.983 C43.696 199.145 43.696 199.145 42.582 200.259 C41.119 200.362 39.652 200.397 38.186 200.404 C37.251 200.41 36.317 200.417 35.354 200.423 C34.338 200.424 33.321 200.426 32.273 200.427 C31.236 200.43 30.199 200.433 29.131 200.437 C26.933 200.442 24.734 200.444 22.536 200.444 C19.162 200.446 15.789 200.464 12.416 200.483 C10.285 200.486 8.154 200.488 6.023 200.489 C5.009 200.496 3.994 200.504 2.949 200.511 C2.48 200.509 2.48 200.509 0.108 200.502 C-0.72 200.503 -1.547 200.505 -2.4 200.506 C-4.418 200.259 -4.418 200.259 -6.418 198.259 C-6.616 195.668 -6.687 193.183 -6.672 190.591 C-6.673 190.19 -6.673 190.19 -6.681 188.165 C-6.689 185.467 -6.683 182.769 -6.677 180.071 C-6.679 178.143 -6.683 176.215 -6.687 174.287 C-6.697 169.039 -6.693 163.792 -6.687 158.544 C-6.682 153.062 -6.686 147.58 -6.689 142.099 C-6.693 132.892 -6.688 123.685 -6.679 114.478 C-6.668 103.82 -6.671 93.163 -6.682 82.505 C-6.691 73.369 -6.693 64.232 -6.687 55.096 C-6.684 49.633 -6.684 44.17 -6.691 38.708 C-6.696 33.573 -6.692 28.438 -6.681 23.303 C-6.678 21.414 -6.679 19.525 -6.683 17.636 C-6.689 15.066 -6.682 12.497 -6.672 9.927 C-6.676 9.171 -6.681 8.416 -6.685 7.638 C-6.642 1.934 -5.829 0.011 0 0 Z " fill="#ffffff" transform="translate(503.41796875,53.7412109375)"/>
<path d="M0 0 C3.819 0.018 7.637 0.014 11.456 0.013 C17.849 0.015 24.242 0.032 30.634 0.06 C38.026 0.091 45.418 0.102 52.809 0.1 C60.702 0.099 68.595 0.113 76.488 0.131 C78.758 0.136 81.028 0.137 83.298 0.138 C86.852 0.14 90.406 0.152 93.96 0.172 C95.89 0.181 97.819 0.18 99.749 0.178 C100.319 0.182 100.319 0.182 103.205 0.204 C103.703 0.206 103.703 0.206 106.221 0.214 C108.577 0.471 108.577 0.471 110.577 2.471 C110.177 6.613 109.066 10.466 107.835 14.428 C107.663 14.985 107.663 14.985 106.792 17.802 C106.612 18.376 106.612 18.376 105.702 21.284 C105.35 22.422 104.999 23.559 104.636 24.731 C103.946 26.955 103.25 29.176 102.547 31.396 C101.935 33.336 101.336 35.281 100.756 37.231 C100.509 38.036 100.262 38.841 100.007 39.671 C99.801 40.364 99.594 41.057 99.382 41.771 C98.577 43.471 98.577 43.471 95.577 45.471 C93.503 45.725 93.503 45.725 91.07 45.73 C90.608 45.733 90.608 45.733 88.271 45.75 C87.26 45.748 86.248 45.745 85.206 45.743 C84.139 45.748 83.072 45.753 81.973 45.759 C79.651 45.769 77.33 45.775 75.009 45.776 C71.33 45.78 67.652 45.797 63.973 45.817 C53.513 45.873 43.052 45.903 32.591 45.928 C26.195 45.944 19.798 45.974 13.402 46.013 C10.968 46.024 8.534 46.03 6.1 46.03 C2.684 46.03 -0.73 46.049 -4.146 46.071 C-5.143 46.066 -6.14 46.062 -7.168 46.057 C-17.91 46.167 -26.768 48.685 -34.423 56.471 C-47.066 72.821 -49.396 94.665 -47.184 114.626 C-45.67 124.629 -42.493 134.315 -36.423 142.471 C-35.804 143.338 -35.185 144.204 -34.548 145.096 C-29.306 150.954 -22.352 153.983 -14.598 154.751 C-11.351 154.864 -8.116 154.885 -4.866 154.872 C-3.639 154.879 -2.412 154.886 -1.148 154.893 C1.502 154.906 4.152 154.914 6.802 154.913 C10.992 154.911 15.181 154.93 19.37 154.953 C27.497 154.994 35.623 155.012 43.749 155.029 C54.119 155.051 64.488 155.085 74.857 155.136 C79.024 155.156 83.19 155.166 87.357 155.167 C90.547 155.171 93.737 155.186 96.927 155.2 C98.084 155.198 99.24 155.195 100.432 155.192 C100.957 155.196 100.957 155.196 103.614 155.213 C104.53 155.215 105.445 155.216 106.389 155.218 C108.577 155.471 108.577 155.471 110.577 157.471 C110.177 161.613 109.066 165.466 107.835 169.428 C107.491 170.542 107.147 171.655 106.792 172.802 C106.433 173.951 106.073 175.1 105.702 176.284 C105.35 177.422 104.999 178.559 104.636 179.731 C103.627 182.981 102.604 186.227 101.577 189.471 C101.436 189.927 101.436 189.927 100.721 192.231 C100.593 192.633 100.593 192.633 99.945 194.671 C99.727 195.364 99.509 196.057 99.284 196.771 C98.577 198.471 98.577 198.471 96.577 200.471 C94.397 200.726 94.397 200.726 91.634 200.732 C91.111 200.736 91.111 200.736 88.466 200.754 C87.89 200.752 87.89 200.752 84.974 200.746 C84.369 200.749 84.369 200.749 81.308 200.762 C77.981 200.773 74.654 200.776 71.327 200.773 C68.544 200.772 65.762 200.777 62.979 200.782 C56.404 200.793 49.828 200.793 43.253 200.787 C36.492 200.781 29.732 200.793 22.971 200.815 C17.155 200.832 11.339 200.838 5.523 200.835 C2.055 200.833 -1.412 200.836 -4.88 200.85 C-8.762 200.865 -12.644 200.855 -16.526 200.844 C-17.092 200.848 -17.092 200.848 -19.956 200.867 C-42.135 200.722 -59.236 190.61 -74.552 175.35 C-80.186 169.341 -84.346 162.603 -88.423 155.471 C-88.885 154.695 -89.348 153.919 -89.825 153.12 C-104.305 126.936 -105.019 92.218 -97.204 63.925 C-90.337 40.77 -76.797 21.928 -56.048 9.44 C-38.002 -0.239 -19.971 -0.113 0 0 Z " fill="#ffffff" transform="translate(681.4226546287537,53.52856111526489)"/>
<path d="M0 0 C0.457 -0.003 0.457 -0.003 2.771 -0.019 C3.76 -0.015 4.75 -0.011 5.77 -0.007 C6.783 -0.009 7.796 -0.011 8.841 -0.013 C10.986 -0.014 13.131 -0.01 15.276 -0.002 C18.569 0.009 21.86 -0.002 25.152 -0.015 C27.233 -0.013 29.314 -0.011 31.395 -0.007 C32.384 -0.011 33.374 -0.015 34.393 -0.019 C35.308 -0.013 36.222 -0.006 37.164 0 C37.567 0.001 37.567 0.001 39.609 0.005 C41.582 0.259 41.582 0.259 43.582 2.259 C43.844 4.894 43.844 4.894 43.861 8.308 C43.872 9.598 43.883 10.888 43.894 12.217 C43.897 13.655 43.899 15.093 43.901 16.531 C43.91 18.038 43.92 19.546 43.931 21.054 C43.959 25.155 43.974 29.256 43.987 33.357 C44.002 37.64 44.029 41.922 44.055 46.205 C44.102 54.319 44.138 62.433 44.171 70.546 C44.21 79.782 44.259 89.018 44.309 98.253 C44.413 117.255 44.502 136.257 44.582 155.259 C44.929 155.258 44.929 155.258 46.685 155.253 C63.551 155.209 80.417 155.176 97.284 155.155 C105.44 155.145 113.597 155.131 121.753 155.108 C128.86 155.088 135.967 155.075 143.074 155.071 C146.839 155.068 150.604 155.062 154.369 155.047 C158.567 155.031 162.765 155.031 166.962 155.032 C168.218 155.025 169.473 155.017 170.766 155.01 C171.335 155.011 171.335 155.011 174.216 155.018 C175.21 155.016 176.204 155.015 177.228 155.013 C179.582 155.259 179.582 155.259 181.582 157.259 C181.965 160.992 181.731 162.035 179.582 165.259 C178.947 167.432 178.373 169.623 177.832 171.821 C176.264 177.993 174.42 184.035 172.395 190.071 C172.133 190.854 171.871 191.636 171.601 192.443 C169.731 197.961 169.731 197.961 168.582 200.259 C111.162 200.259 53.742 200.259 -5.418 200.259 C-6.955 197.186 -6.559 193.963 -6.552 190.591 C-6.554 189.79 -6.556 188.989 -6.559 188.165 C-6.565 185.467 -6.564 182.769 -6.563 180.071 C-6.566 178.143 -6.57 176.215 -6.573 174.287 C-6.582 169.039 -6.585 163.792 -6.585 158.544 C-6.586 154.17 -6.59 149.796 -6.593 145.421 C-6.602 135.107 -6.604 124.792 -6.603 114.478 C-6.603 103.82 -6.613 93.163 -6.629 82.505 C-6.642 73.369 -6.647 64.232 -6.647 55.096 C-6.647 49.633 -6.649 44.17 -6.66 38.708 C-6.67 33.573 -6.67 28.438 -6.662 23.303 C-6.661 21.414 -6.664 19.525 -6.67 17.636 C-6.677 15.066 -6.673 12.497 -6.665 9.927 C-6.67 9.171 -6.675 8.416 -6.681 7.638 C-6.643 1.933 -5.83 0.011 0 0 Z " fill="#ffffff" transform="translate(1075.41796875,53.7412109375)"/>
<path d="M0 0 C22.244 7.582 42.669 21.349 54.945 42.004 C55.018 46.137 54.665 48.171 51.945 51.316 C51.497 51.712 51.048 52.108 50.586 52.516 C44.198 58.311 38.815 65.317 33.406 72.008 C30.074 76.064 26.635 80.024 23.198 83.992 C20.436 87.201 17.806 90.446 15.32 93.879 C14.537 94.91 13.753 95.941 12.945 97.004 C12.285 97.004 11.625 97.004 10.945 97.004 C10.715 97.525 10.484 98.045 10.246 98.582 C7.207 104.24 3.162 110.136 -2.055 114.004 C-7.357 115.404 -11.921 114.908 -17.141 113.402 C-20.218 111.154 -21.846 107.924 -23.742 104.691 C-27.675 98.162 -31.845 91.927 -36.34 85.773 C-38.049 83.013 -38.904 81.237 -39.055 78.004 C-38.129 76.23 -38.129 76.23 -36.742 74.629 C-31.325 67.587 -31.354 59.59 -32.055 51.004 C-33.441 45.068 -35.925 39.424 -41.055 36.004 C-41.844 31.958 -40.933 29.478 -38.941 26.039 C-38.715 25.643 -38.715 25.643 -37.57 23.641 C-37.07 22.771 -36.57 21.9 -36.055 21.004 C-34.965 19.047 -33.878 17.088 -32.793 15.129 C-31.651 13.087 -30.51 11.045 -29.367 9.004 C-28.786 7.956 -28.206 6.908 -27.607 5.828 C-27.05 4.834 -26.492 3.84 -25.918 2.816 C-25.416 1.915 -24.913 1.014 -24.396 0.086 C-20.145 -6.513 -6.349 -1.916 0 0 Z " fill="#ffffff" transform="translate(351.0546875,71.99609375)"/>
<path d="M0 0 C2.468 1.806 3.357 3.278 5 6 C5.079 9.307 4.264 10.625 2.375 13.312 C0 15 0 15 -3.438 15.625 C-6.973 15.005 -7.72 14.807 -10.062 12.375 C-12 9 -12 9 -11.5 5.812 C-8.538 0.259 -6.563 -1.018 0 0 Z " fill="#ffffff" transform="translate(200,114)"/>
<path d="M0 0 C4.52 2.153 8.177 5.281 10 10 C10.696 14.687 10.477 18.028 8.375 22.312 C4.582 26.605 1.834 28.767 -3.938 29.5 C-8.332 29.24 -11.663 27.872 -15 25 C-17.805 21.657 -18.894 18.756 -19.5 14.438 C-18.725 9.11 -16.354 6.193 -12.375 2.688 C-8.341 -0.179 -4.891 -0.786 0 0 Z " fill="#ffffff" transform="translate(295,115)"/>
<path d="M0 0 C2.984 0.853 5.433 1.845 8.223 3.16 C12.82 5.276 17.457 7.238 22.152 9.121 C22.825 9.391 23.497 9.661 24.19 9.939 C26.967 11.053 29.746 12.163 32.527 13.268 C57.233 23.1 57.233 23.1 60.5 28 C60.634 28.474 60.634 28.474 61.312 30.875 C62.717 34.571 64.659 36.301 67.5 39 C70.007 42.633 69.669 46.239 69.434 50.469 C69.398 51.186 69.363 51.903 69.326 52.642 C69.247 54.156 69.162 55.669 69.071 57.181 C68.938 59.491 68.842 61.801 68.748 64.113 C68.666 65.586 68.582 67.059 68.496 68.531 C68.472 69.22 68.448 69.909 68.423 70.618 C68.164 74.243 67.748 75.755 65.129 78.346 C64.262 78.892 63.394 79.438 62.5 80 C56.322 83.908 52.039 88.018 49.5 95 C48.635 102.385 48.889 108.942 53.5 115 C57.919 119.794 62.234 122.61 68.852 123.215 C76.398 123.5 82.402 121.747 88.145 116.559 C92.573 111.467 93.707 106.377 93.438 99.75 C93.28 94.33 93.28 94.33 95.375 91.188 C95.891 90.827 95.891 90.827 98.5 89 C99.136 88.531 99.771 88.062 100.426 87.578 C106.508 83.166 112.833 79.068 119.101 74.925 C123.488 72.024 127.839 69.081 132.156 66.078 C132.627 65.754 132.627 65.754 135.01 64.115 C136.851 62.849 138.683 61.571 140.507 60.281 C141.347 59.707 142.186 59.134 143.051 58.543 C143.79 58.028 144.529 57.512 145.29 56.981 C148.121 55.724 149.586 56.089 152.5 57 C153.892 57.826 155.266 58.683 156.625 59.562 C162.581 62.739 168.338 62.318 174.899 61.903 C175.693 61.864 176.487 61.825 177.305 61.785 C177.66 61.759 177.66 61.759 179.46 61.625 C183.225 62.317 185.001 65.317 187.16 68.271 C187.694 69.085 188.227 69.899 188.777 70.738 C189.075 71.19 189.075 71.19 190.584 73.475 C190.89 73.943 190.89 73.943 192.438 76.312 C193.654 78.163 194.871 80.014 196.09 81.863 C196.668 82.744 197.245 83.625 197.841 84.533 C199.309 86.717 200.84 88.825 202.418 90.93 C204.91 94.604 205.012 96.647 204.5 101 C204.17 101.66 203.84 102.32 203.5 103 C202.956 109.932 204.526 114.493 208.812 119.938 C213.757 123.699 220.68 122.732 226.5 122 C230.469 120.766 232.142 118.561 234.375 115.062 C235.738 111.526 235.391 108.491 235.125 104.75 C234.983 97.848 237.141 94.84 241.734 89.879 C242.191 89.404 242.191 89.404 244.5 87 C246.529 84.691 248.512 82.344 250.5 80 C251.518 78.816 252.536 77.632 253.555 76.449 C263.968 64.298 263.968 64.298 267.5 59 C268.16 59 268.82 59 269.5 59 C269.775 58.407 270.049 57.814 270.333 57.203 C271.449 55.096 272.606 53.536 274.18 51.758 C274.697 51.166 275.214 50.574 275.746 49.965 C276.015 49.661 276.015 49.661 277.375 48.125 C283.33 41.388 283.33 41.388 285.68 37.578 C285.98 37.153 285.98 37.153 287.5 35 C290.75 34.625 290.75 34.625 293.5 35 C297.374 45.459 298.875 55.615 298.812 66.75 C298.808 67.798 298.803 68.847 298.798 69.927 C298.453 92.887 289.586 114.537 274.125 131.625 C273.259 132.409 272.392 133.192 271.5 134 C270.901 134.58 270.301 135.16 269.684 135.758 C247.056 157.01 220.835 162.239 190.742 162.082 C189.187 162.077 187.632 162.073 186.076 162.069 C181.801 162.057 177.525 162.036 173.25 162.014 C170.433 162 167.616 161.988 164.798 161.976 C153.57 161.929 142.341 161.86 131.113 161.764 C125.798 161.719 120.482 161.68 115.167 161.654 C109.906 161.627 104.645 161.587 99.384 161.537 C97.414 161.52 95.444 161.509 93.473 161.502 C79.164 161.452 66.24 160.104 52.688 155.125 C52.328 154.995 52.328 154.995 50.508 154.336 C45.191 152.362 40.252 150.122 35.5 147 C34.718 146.488 33.935 145.976 33.129 145.449 C26.652 141.054 20.226 136.345 14.5 131 C14.5 130.34 14.5 129.68 14.5 129 C13.51 128.67 12.52 128.34 11.5 128 C9.682 126.018 8.02 124.055 6.375 121.938 C5.891 121.316 5.408 120.695 4.91 120.055 C-13.436 95.873 -20.89 66.854 -16.875 36.766 C-15.544 28.515 -10.648 0 0 0 Z " fill="#ffffff" transform="translate(120.5,96)"/>
<path d="M0 0 C3.001 2.87 4.677 5.089 6.062 9 C5.978 13.054 4.501 14.873 2 18 C1.783 18.299 1.783 18.299 0.688 19.812 C-2.117 21.786 -4.627 21.884 -8 22 C-12.529 20.167 -15.264 16.987 -18 13 C-18.733 9.093 -18.188 7.384 -16.438 3.812 C-11.575 -1.799 -6.77 -3.134 0 0 Z " fill="#ffffff" transform="translate(198,187)"/>
<path d="M0 0 C2.062 2.812 2.062 2.812 3 6 C2.388 9.823 1.41 11.567 -1.25 14.375 C-4.59 16.348 -6.186 16.715 -10 16 C-12.812 13.562 -12.812 13.562 -15 11 C-15.33 10.67 -15.66 10.34 -16 10 C-16.509 5.585 -16.536 3.684 -13.75 0.125 C-8.464 -3.96 -5.898 -3.325 0 0 Z " fill="#ffffff" transform="translate(347,196)"/>
<path d="M0 0 C0.855 -0.02 1.709 -0.04 2.59 -0.061 C8.806 -0.056 8.806 -0.056 12.109 2.293 C13.5 4.438 13.5 4.438 13.25 7.188 C13.002 7.93 12.755 8.673 12.5 9.438 C10.19 9.767 7.88 10.098 5.5 10.438 C5.475 11.124 5.45 11.81 5.424 12.517 C5.308 15.616 5.185 18.714 5.062 21.812 C5.023 22.893 4.984 23.973 4.943 25.086 C4.901 26.117 4.86 27.148 4.816 28.211 C4.78 29.164 4.743 30.117 4.705 31.099 C4.5 33.438 4.5 33.438 3.5 35.438 C1.082 36.438 -0.158 36.535 -2.688 35.812 C-4.5 34.438 -4.5 34.438 -5.109 32.434 C-5.646 28.319 -5.605 24.269 -5.562 20.125 C-5.558 19.289 -5.553 18.453 -5.549 17.592 C-5.537 15.54 -5.519 13.489 -5.5 11.438 C-7.81 10.777 -10.12 10.118 -12.5 9.438 C-12.83 7.457 -13.16 5.478 -13.5 3.438 C-9.652 -0.592 -5.197 -0.043 0 0 Z " fill="#ffffff" transform="translate(88.5,326.5625)"/>
<path d="M0 0 C0.938 -0.026 1.877 -0.052 2.844 -0.078 C5.902 0.3 7.234 1.219 9.5 3.25 C8.625 8.125 8.625 8.125 7.5 9.25 C5.484 9.484 3.462 9.663 1.438 9.812 C0.333 9.896 -0.772 9.98 -1.91 10.066 C-2.765 10.127 -3.619 10.188 -4.5 10.25 C-4.5 11.57 -4.5 12.89 -4.5 14.25 C-3.885 14.155 -3.27 14.059 -2.637 13.961 C-1.828 13.85 -1.02 13.739 -0.188 13.625 C0.613 13.509 1.414 13.393 2.238 13.273 C4.5 13.25 4.5 13.25 7.5 15.25 C7.812 17.75 7.812 17.75 7.5 20.25 C5.005 22.745 3.827 22.609 0.375 22.875 C-0.535 22.95 -1.445 23.025 -2.383 23.102 C-2.732 23.126 -2.732 23.126 -4.5 23.25 C-4.5 24.57 -4.5 25.89 -4.5 27.25 C-4.078 27.28 -4.078 27.28 -1.945 27.434 C-1.397 27.475 -1.397 27.475 1.375 27.688 C1.92 27.728 1.92 27.728 4.68 27.934 C7.5 28.25 7.5 28.25 9.5 29.25 C9.625 31.625 9.625 31.625 9.5 34.25 C6.89 36.86 4.989 36.538 1.428 36.572 C0.647 36.569 -0.133 36.566 -0.938 36.562 C-1.326 36.571 -1.326 36.571 -3.291 36.611 C-8.934 36.616 -8.934 36.616 -11.221 35.135 C-13.115 32.342 -12.889 30.068 -12.898 26.719 C-12.902 25.434 -12.906 24.148 -12.91 22.824 C-12.904 22.156 -12.898 21.487 -12.891 20.798 C-12.875 18.757 -12.891 16.717 -12.91 14.676 C-12.906 13.391 -12.902 12.105 -12.898 10.781 C-12.895 9.601 -12.892 8.421 -12.888 7.205 C-12.5 4.25 -12.5 4.25 -11.09 2.384 C-7.719 -0.02 -4.031 0.066 0 0 Z " fill="#ffffff" transform="translate(126.5,326.75)"/>
<path d="M0 0 C2.938 1.188 2.938 1.188 5 3 C5.938 5.562 5.938 5.562 6 8 C4 10 4 10 1.504 10.16 C0.533 10.128 -0.437 10.096 -1.438 10.062 C-4.737 9.961 -6.844 9.948 -10 11 C-11.22 13.44 -11.202 15.153 -11.25 17.875 C-11.276 18.739 -11.302 19.602 -11.328 20.492 C-10.933 23.51 -10.134 24.851 -8 27 C-4.812 27.25 -4.812 27.25 -2 27 C-1.67 25.68 -1.34 24.36 -1 23 C-2.32 22.67 -3.64 22.34 -5 22 C-5.625 19.625 -5.625 19.625 -6 17 C-4 15 -4 15 -0.125 14.625 C2.673 14.732 3.968 14.983 6.5 16.312 C8.952 20.705 8.843 25.104 8 30 C5.313 33.761 2.513 35.925 -2 37 C-8.589 36.76 -12.363 34.271 -17.25 30.062 C-20.891 25.771 -21.41 21.676 -21.238 16.199 C-20.536 9.721 -16.553 6.394 -11.84 2.418 C-8.114 -0.454 -4.563 -0.481 0 0 Z " fill="#ffffff" transform="translate(261,327)"/>
<path d="M0 0 C1.043 -0.014 2.086 -0.028 3.16 -0.043 C5.938 0.188 5.938 0.188 8.938 2.188 C8.608 4.498 8.277 6.808 7.938 9.188 C3.896 9.821 0.031 10.312 -4.062 10.188 C-4.062 11.178 -4.062 12.168 -4.062 13.188 C-2.077 13.155 -0.091 13.122 1.895 13.09 C3.938 13.188 3.938 13.188 6.938 14.188 C7.562 16.5 7.562 16.5 7.938 19.188 C7.277 20.178 6.618 21.168 5.938 22.188 C3.773 22.48 3.773 22.48 1.312 22.375 C0.904 22.361 0.904 22.361 -1.164 22.293 C-1.791 22.258 -2.417 22.223 -3.062 22.188 C-3.392 23.837 -3.723 25.488 -4.062 27.188 C-3.219 27.213 -2.376 27.239 -1.508 27.266 C-0.412 27.322 0.684 27.379 1.812 27.438 C2.903 27.484 3.994 27.53 5.117 27.578 C7.938 28.188 7.938 28.188 9.383 30.047 C9.938 32.188 9.938 32.188 8.938 35.188 C5.793 36.76 2.448 36.372 -1 36.375 C-1.729 36.387 -2.458 36.399 -3.209 36.412 C-7.034 36.423 -8.806 36.358 -12.062 34.188 C-13.724 29.203 -13.289 24.031 -13.312 18.812 C-13.333 17.676 -13.354 16.539 -13.375 15.367 C-13.38 14.269 -13.385 13.171 -13.391 12.039 C-13.4 11.037 -13.409 10.035 -13.419 9.002 C-13.004 5.722 -11.999 3.844 -10.062 1.188 C-6.895 -0.215 -3.428 0.021 0 0 Z " fill="#ffffff" transform="translate(294.0625,326.8125)"/>
<path d="M0 0 C0.434 -0.006 0.434 -0.006 2.629 -0.037 C3.463 -0.039 4.297 -0.041 5.156 -0.043 C5.917 -0.047 6.679 -0.051 7.463 -0.055 C9.5 0.188 9.5 0.188 12.5 2.188 C12.688 5.312 12.688 5.312 12.5 8.188 C9.853 9.648 8.606 10.188 5.5 10.188 C5.475 10.874 5.45 11.56 5.424 12.267 C5.308 15.366 5.185 18.464 5.062 21.562 C5.023 22.643 4.984 23.723 4.943 24.836 C4.901 25.867 4.86 26.898 4.816 27.961 C4.78 28.914 4.743 29.867 4.705 30.849 C4.5 33.188 4.5 33.188 3.5 35.188 C1.688 35.938 1.688 35.938 -0.5 36.188 C-1.82 35.528 -3.14 34.868 -4.5 34.188 C-4.83 26.598 -5.16 19.007 -5.5 11.188 C-7.81 10.527 -10.12 9.868 -12.5 9.188 C-13.625 3.438 -13.625 3.438 -12.5 1.188 C-8.322 -0.205 -4.376 0.003 0 0 Z " fill="#ffffff" transform="translate(368.5,326.8125)"/>
<path d="M0 0 C2.062 1.812 2.062 1.812 3 4.375 C3.021 5.179 3.041 5.984 3.062 6.812 C1.062 8.812 1.062 8.812 -1.434 8.973 C-2.404 8.94 -3.375 8.908 -4.375 8.875 C-7.674 8.774 -9.781 8.76 -12.938 9.812 C-15.052 14.811 -14.048 20.676 -12.938 25.812 C-12.402 25.807 -12.402 25.807 -9.691 25.777 C-8.294 25.768 -6.897 25.759 -5.5 25.75 C-4.793 25.742 -4.086 25.733 -3.357 25.725 C-1.551 25.716 0.256 25.76 2.062 25.812 C3.062 26.812 3.062 26.812 3.125 29.375 C3.104 30.179 3.084 30.984 3.062 31.812 C-5.806 36.742 -5.806 36.742 -9.938 35.812 C-16.333 32.673 -20.01 28.704 -23.938 22.812 C-24.927 16.364 -24.444 10.869 -20.551 5.539 C-14.697 -0.726 -8.272 -3.344 0 0 Z " fill="#ffffff" transform="translate(438.9375,328.1875)"/>
<path d="M0 0 C5.149 2.821 9.637 6.584 12 12 C12.901 17.537 13.183 22.624 10.637 27.738 C7.47 32.028 4.234 35.474 -1 37 C-6.467 36.902 -9.759 35.393 -14 32 C-18.687 26.933 -19.223 22.942 -19.168 16.262 C-18.948 13.295 -18.125 10.742 -17 8 C-16.34 8 -15.68 8 -15 8 C-14.794 7.423 -14.587 6.845 -14.375 6.25 C-11.027 0.772 -6.17 -1.064 0 0 Z M-8.938 10.875 C-11.682 15.033 -11.93 18.151 -11 23 C-9.438 26.062 -9.438 26.062 -7 28 C-3.438 28.625 -3.438 28.625 0 28 C2.9 25.1 3.195 22.38 3.312 18.438 C3.295 15.118 2.854 12.794 1 10 C-3.287 8.625 -5.097 8.424 -8.938 10.875 Z " fill="#ffffff" transform="translate(473,327)"/>
<path d="M0 0 C5.884 0.598 9.961 3.334 13.75 7.812 C14.987 11.193 14.74 12.938 13.688 16.375 C11.663 20.506 9.927 22.561 5.688 24.188 C3.049 25.038 0.38 25.72 -2.312 26.375 C-2.271 26.829 -2.271 26.829 -2.062 29.125 C-2.312 32.375 -2.312 32.375 -4.312 34.75 C-4.972 35.286 -5.633 35.822 -6.312 36.375 C-10.188 34.625 -10.188 34.625 -11.312 32.375 C-11.584 28.11 -11.544 23.836 -11.562 19.562 C-11.583 18.373 -11.604 17.184 -11.625 15.959 C-11.628 15.385 -11.628 15.385 -11.641 12.48 C-11.65 11.43 -11.659 10.38 -11.669 9.298 C-11.26 5.943 -10.325 4.069 -8.312 1.375 C-5.547 0.376 -2.926 0.331 0 0 Z M-3.312 11.375 C-2.938 14 -2.938 14 -2.312 16.375 C-0.003 16.375 2.308 16.375 4.688 16.375 C5.312 14 5.312 14 5.688 11.375 C3.688 9.375 3.688 9.375 1.188 9.125 C-1.312 9.375 -1.312 9.375 -3.312 11.375 Z " fill="#ffffff" transform="translate(553.3125,326.625)"/>
<path d="M0 0 C0.915 -0.016 1.83 -0.032 2.773 -0.049 C3.653 -0.049 4.532 -0.05 5.438 -0.051 C6.241 -0.054 7.044 -0.057 7.871 -0.06 C10.518 0.403 11.409 1.178 13 3.312 C13.188 6 13.188 6 13 8.312 C10.36 9.303 7.72 10.293 5 11.312 C4.67 18.902 4.34 26.493 4 34.312 C-1 36.312 -1 36.312 -4 35.312 C-5.258 32.796 -5.208 30.9 -5.316 28.086 C-5.358 27.055 -5.4 26.023 -5.443 24.961 C-5.483 23.881 -5.522 22.8 -5.562 21.688 C-5.606 20.6 -5.649 19.512 -5.693 18.391 C-5.8 15.698 -5.902 13.005 -6 10.312 C-6.784 10.354 -7.567 10.395 -8.375 10.438 C-11 10.312 -11 10.312 -13 8.312 C-13.312 5.312 -13.312 5.312 -13 2.312 C-8.728 -0.535 -5.022 -0.018 0 0 Z " fill="#ffffff" transform="translate(632,326.6875)"/>
<path d="M0 0 C2.363 1.156 4.15 2.15 6 4 C6.125 6.5 6.125 6.5 6 9 C5.67 9.33 5.34 9.66 5 10 C1.988 9.95 -1.012 9.802 -4.02 9.645 C-7 10 -7 10 -9.359 11.73 C-11.999 15.383 -11.635 18.671 -11 23 C-9.938 25.562 -9.938 25.562 -8 27 C-4.312 27.25 -4.312 27.25 -1 27 C-0.67 26.01 -0.34 25.02 0 24 C-0.804 23.752 -1.609 23.505 -2.438 23.25 C-5 22 -5 22 -5.938 20.062 C-6 18 -6 18 -4 15 C2.745 14.347 2.745 14.347 6.223 16.156 C8.685 18.711 8.567 20.372 8.562 23.875 C8.42 28.079 8.273 29.61 5.812 33.125 C2.017 35.655 -0.304 37.108 -4.938 36.812 C-11.568 35.053 -15.041 32.429 -19 27 C-20.053 23.84 -20.2 21.445 -20.25 18.125 C-20.263 17.611 -20.263 17.611 -20.328 15.008 C-19.756 9.766 -16.861 6.407 -13 3 C-8.83 -0.244 -5.124 -0.797 0 0 Z " fill="#ffffff" transform="translate(738,327)"/>
<path d="M0 0 C4.46 0.6 6.235 2.142 9.25 5.438 C10.438 8.938 10.438 8.938 10.25 12.438 C7.875 15.188 7.875 15.188 5.25 17.438 C4.92 18.428 4.59 19.418 4.25 20.438 C5.57 20.438 6.89 20.438 8.25 20.438 C8.91 19.447 9.57 18.457 10.25 17.438 C11.9 17.767 13.55 18.098 15.25 18.438 C15.429 22.385 15.344 25.036 13.25 28.438 C13.91 29.428 14.57 30.418 15.25 31.438 C15.062 33.562 15.062 33.562 14.25 35.438 C11.25 36.438 11.25 36.438 8.25 35.875 C5.25 35.438 5.25 35.438 2.25 37.438 C-2.707 37.157 -6.555 36.107 -10.75 33.438 C-13.399 30.361 -13.768 28.963 -13.625 24.875 C-12.789 21.591 -12.125 19.813 -9.75 17.438 C-9.09 17.438 -8.43 17.438 -7.75 17.438 C-7.915 17.077 -7.915 17.077 -8.75 15.25 C-9.814 12.258 -10.297 10.566 -9.75 7.438 C-7.375 4.75 -7.375 4.75 -4.75 2.438 C-2.75 0.438 -2.75 0.438 0 0 Z M-0.75 8.438 C-1.08 9.428 -1.41 10.418 -1.75 11.438 C-0.76 11.767 0.23 12.098 1.25 12.438 C1.25 11.118 1.25 9.798 1.25 8.438 C0.59 8.438 -0.07 8.438 -0.75 8.438 Z M-4.75 22.438 C-4.793 24.104 -4.791 25.771 -4.75 27.438 C-3.75 28.438 -3.75 28.438 -0.688 28.5 C0.282 28.479 1.251 28.459 2.25 28.438 C1.098 25.969 0.202 24.39 -1.75 22.438 C-2.74 22.438 -3.73 22.438 -4.75 22.438 Z " fill="#ffffff" transform="translate(793.75,326.5625)"/>
<path d="M0 0 C1.045 -0.014 2.091 -0.028 3.168 -0.043 C5.812 0.188 5.812 0.188 7.812 2.188 C7.938 5.312 7.938 5.312 7.812 8.188 C3.635 9.779 0.281 10.4 -4.188 10.188 C-3.857 11.178 -3.528 12.168 -3.188 13.188 C-2.094 13.146 -1.001 13.105 0.125 13.062 C3.812 13.188 3.812 13.188 6.812 15.188 C7 18.312 7 18.312 6.812 21.188 C4.516 22.336 2.736 22.495 0.188 22.75 C-0.221 22.792 -0.221 22.792 -2.289 23.004 C-2.916 23.064 -3.542 23.125 -4.188 23.188 C-4.188 24.507 -4.188 25.827 -4.188 27.188 C-3.802 27.2 -3.802 27.2 -1.852 27.266 C-0.849 27.322 0.154 27.379 1.188 27.438 C1.686 27.461 1.686 27.461 4.211 27.578 C6.812 28.188 6.812 28.188 8.289 29.984 C8.812 32.188 8.812 32.188 7.938 34.438 C7.566 35.015 7.195 35.592 6.812 36.188 C4.041 36.241 1.271 36.281 -1.5 36.312 C-2.286 36.329 -3.071 36.346 -3.881 36.363 C-4.26 36.367 -4.26 36.367 -6.176 36.383 C-6.524 36.388 -6.524 36.388 -8.286 36.415 C-10.188 36.188 -10.188 36.188 -13.188 34.188 C-14.849 29.203 -14.414 24.031 -14.438 18.812 C-14.458 17.676 -14.479 16.539 -14.5 15.367 C-14.505 14.269 -14.51 13.171 -14.516 12.039 C-14.525 11.037 -14.534 10.035 -14.544 9.002 C-14.127 5.711 -13.156 3.837 -11.188 1.188 C-7.559 -0.075 -3.821 0.024 0 0 Z " fill="#ffffff" transform="translate(897.1875,326.8125)"/>
<path d="M0 0 C0.859 -0.029 1.718 -0.058 2.604 -0.088 C8.906 -0.151 8.906 -0.151 12.176 2.16 C13.562 4.312 13.562 4.312 13.312 7.062 C13.065 7.805 12.817 8.548 12.562 9.312 C9.923 9.973 7.283 10.632 4.562 11.312 C4.583 11.928 4.604 12.543 4.626 13.177 C4.709 15.972 4.761 18.767 4.812 21.562 C4.829 22.047 4.829 22.047 4.914 24.496 C5.014 31.714 5.014 31.714 2.547 34.984 C1.892 35.423 1.237 35.861 0.562 36.312 C-1.087 35.653 -2.737 34.993 -4.438 34.312 C-4.768 26.392 -5.097 18.473 -5.438 10.312 C-7.747 9.983 -10.058 9.652 -12.438 9.312 C-13.562 3.562 -13.562 3.562 -12.438 1.312 C-8.281 -0.073 -4.354 0.049 0 0 Z " fill="#ffffff" transform="translate(931.4375,326.6875)"/>
<path d="M0 0 C5.147 2.85 9.629 6.567 12 12 C12.942 18.322 13.216 24.163 9.438 29.562 C6.289 33.051 3.368 35.238 -1 37 C-6.469 37 -9.768 35.386 -14 32 C-18.738 26.749 -19.369 22.676 -19.27 15.785 C-18.683 9.728 -15.753 6.374 -11.188 2.562 C-7.297 -0.105 -4.763 -1.021 0 0 Z M-8.375 10.812 C-11.286 14.731 -11.641 18.208 -11 23 C-9.438 26 -9.438 26 -7 28 C-3.438 28.625 -3.438 28.625 0 28 C2.9 25.1 3.195 22.38 3.312 18.438 C3.295 15.12 2.861 12.789 1 10 C-4.986 8.226 -4.986 8.226 -8.375 10.812 Z " fill="#ffffff" transform="translate(1025,327)"/>
<path d="M0 0 C4.478 0.527 7.693 2.581 11.188 5.375 C13.253 8.473 13.482 9.329 13.5 12.875 C13.517 13.648 13.534 14.422 13.551 15.219 C13.104 17.873 12.14 18.604 10.188 20.375 C9.75 22.75 9.75 22.75 10.188 25.375 C10.848 26.2 11.507 27.025 12.188 27.875 C14.188 30.375 14.188 30.375 14.438 33.188 C14.396 33.548 14.396 33.548 14.188 35.375 C12 36.188 12 36.188 9.188 36.375 C4.936 33.057 2.666 29.056 0.188 24.375 C-0.473 24.375 -1.132 24.375 -1.812 24.375 C-2.142 27.675 -2.473 30.975 -2.812 34.375 C-5.125 35.5 -5.125 35.5 -7.812 36.375 C-8.803 35.715 -9.793 35.055 -10.812 34.375 C-11.201 31.442 -11.201 31.442 -11.211 27.723 C-11.214 27.067 -11.217 26.411 -11.22 25.735 C-11.222 24.347 -11.216 22.959 -11.204 21.572 C-11.188 19.449 -11.203 17.328 -11.223 15.205 C-11.221 13.857 -11.217 12.508 -11.211 11.16 C-11.208 9.932 -11.204 8.703 -11.201 7.438 C-10.812 4.375 -10.812 4.375 -9.432 2.494 C-6.521 0.483 -3.432 0.458 0 0 Z M-0.812 8.375 C-2.812 10.375 -2.812 10.375 -2.938 13 C-2.896 13.784 -2.855 14.567 -2.812 15.375 C-0.562 16.062 -0.562 16.062 2.188 16.375 C4.5 14.938 4.5 14.938 6.188 13.375 C5.858 12.385 5.527 11.395 5.188 10.375 C2.125 9.188 2.125 9.188 -0.812 8.375 Z " fill="#ffffff" transform="translate(1059.8125,326.625)"/>
<path d="M0 0 C2.363 1.156 4.15 2.15 6 4 C6.041 5.666 6.043 7.334 6 9 C2.753 10.624 -0.698 10.015 -4.273 9.938 C-6.713 9.993 -8.677 10.295 -11 11 C-11.108 12.915 -11.186 14.833 -11.25 16.75 C-11.273 17.284 -11.273 17.284 -11.391 19.984 C-11 23 -11 23 -9.219 25.406 C-7 27 -7 27 -3.25 26.75 C-2.178 26.502 -1.105 26.255 0 26 C-0.412 25.639 -0.412 25.639 -2.5 23.812 C-5 21 -5 21 -5.312 18.188 C-5.209 17.466 -5.106 16.744 -5 16 C-1.943 14.472 0.63 14.768 4 15 C6.191 16.113 6.191 16.113 8 18 C8.566 20.996 8.566 20.996 8.562 24.438 C8.584 25.571 8.606 26.704 8.629 27.871 C8 31 8 31 5.617 33.328 C1.928 35.685 -0.488 37.097 -4.938 36.812 C-11.426 35.091 -15.152 32.559 -19 27 C-21.494 20.766 -21.178 16.099 -18.812 9.875 C-14.472 2.991 -8.268 -1.096 0 0 Z " fill="#ffffff" transform="translate(1205,327)"/>
<path d="M0 0 C2.383 1.986 3.587 3.653 3.914 6.762 C3.641 9.626 2.801 11.758 1.664 14.387 C1.664 15.047 1.664 15.707 1.664 16.387 C2.654 16.717 3.644 17.047 4.664 17.387 C5.148 24.53 5.148 24.53 3.039 28.262 C-2.179 32.931 -7.842 32.639 -14.531 32.75 C-17.841 32.321 -19.004 31.756 -21.336 29.387 C-21.838 26.432 -21.838 26.432 -21.832 22.855 C-21.833 21.57 -21.833 20.285 -21.834 18.961 C-21.824 18.292 -21.813 17.624 -21.802 16.935 C-21.774 14.893 -21.782 12.854 -21.795 10.812 C-21.73 0.904 -21.73 0.904 -19.914 -1.479 C-13.495 -6.094 -5.988 -3.972 0 0 Z M-13.336 6.387 C-13.336 7.377 -13.336 8.367 -13.336 9.387 C-11.026 9.717 -8.716 10.047 -6.336 10.387 C-5.773 8.449 -5.773 8.449 -5.336 6.387 C-6.336 5.387 -6.336 5.387 -8.773 5.262 C-11.336 5.387 -11.336 5.387 -13.336 6.387 Z M-13.336 19.387 C-13.336 20.707 -13.336 22.027 -13.336 23.387 C-10.627 24.741 -8.327 24.452 -5.336 24.387 C-4.954 22.731 -4.622 21.062 -4.336 19.387 C-5.336 18.387 -5.336 18.387 -8.273 18.262 C-11.336 18.387 -11.336 18.387 -13.336 19.387 Z " fill="#ffffff" transform="translate(1344.3359375,330.61328125)"/>
<path d="M0 0 C2.562 0.25 2.562 0.25 5 1 C7.111 5.222 6.227 10.732 6.24 15.376 C6.25 17.426 6.281 19.475 6.312 21.525 C6.318 22.815 6.323 24.105 6.328 25.434 C6.337 26.62 6.347 27.807 6.356 29.029 C6 32 6 32 4.479 33.91 C3.991 34.27 3.503 34.63 3 35 C1.35 34.34 -0.3 33.68 -2 33 C-2.049 28.622 -2.086 24.244 -2.11 19.865 C-2.12 18.375 -2.134 16.885 -2.151 15.396 C-2.175 13.256 -2.186 11.116 -2.195 8.977 C-2.201 8.332 -2.201 8.332 -2.227 5.073 C-2 2 -2 2 0 0 Z " fill="#ffffff" transform="translate(17,328)"/>
<path d="M0 0 C1.755 2.163 3.001 3.974 4.312 6.375 C4.486 6.67 4.486 6.67 5.361 8.164 C6.851 10.742 8.057 13.17 9 16 C8.977 15.348 8.954 14.695 8.93 14.023 C8.824 8.913 8.981 4.796 11 0 C12.65 -0.33 14.3 -0.66 16 -1 C18.764 1.611 19.235 3.759 19.363 7.414 C19.365 9.151 19.347 10.888 19.312 12.625 C19.304 13.521 19.296 14.416 19.287 15.339 C19.176 21.44 18.577 27.085 17 33 C14.75 33.75 14.75 33.75 12 34 C8.766 31.524 6.891 28.436 4.875 24.938 C3.305 22.233 1.735 19.603 0 17 C0.012 17.987 0.023 18.975 0.035 19.992 C0.044 21.274 0.053 22.555 0.062 23.875 C0.074 25.151 0.086 26.427 0.098 27.742 C0 31 0 31 -1 33 C-3.31 33 -5.62 33 -8 33 C-11.853 22.999 -10.949 10.232 -8 0 C-4.948 -1.526 -3.226 -0.986 0 0 Z " fill="#ffffff" transform="translate(45,329)"/>
<path d="M0 0 C2.375 0.75 2.375 0.75 3.375 1.75 C3.533 3.529 3.626 5.313 3.691 7.098 C3.712 7.637 3.712 7.637 3.818 10.369 C3.858 11.505 3.897 12.642 3.938 13.812 C3.981 14.953 4.024 16.093 4.068 17.268 C4.175 20.095 4.277 22.922 4.375 25.75 C5.354 25.812 5.354 25.812 10.25 26.125 C16.125 26.5 16.125 26.5 18.375 28.75 C17.819 33.306 17.819 33.306 16.375 34.75 C13.406 34.877 10.47 34.935 7.5 34.938 C6.671 34.95 5.842 34.962 4.988 34.975 C4.19 34.977 3.392 34.978 2.57 34.98 C1.838 34.985 1.106 34.989 0.352 34.993 C-1.625 34.75 -1.625 34.75 -4.625 32.75 C-6.391 27.451 -5.852 21.796 -5.875 16.25 C-5.896 15.001 -5.916 13.752 -5.938 12.465 C-5.943 11.27 -5.948 10.075 -5.953 8.844 C-5.962 7.747 -5.972 6.651 -5.981 5.521 C-5.625 2.75 -5.625 2.75 -4.269 0.854 C-2.625 -0.25 -2.625 -0.25 0 0 Z " fill="#ffffff" transform="translate(153.625,328.25)"/>
<path d="M0 0 C2.438 0.875 2.438 0.875 4.438 3.875 C4.665 6.327 4.665 6.327 4.633 9.199 C4.63 9.713 4.63 9.713 4.613 12.314 C4.597 13.386 4.58 14.458 4.562 15.562 C4.553 16.646 4.544 17.729 4.535 18.846 C4.512 21.522 4.479 24.199 4.438 26.875 C5.281 26.852 6.124 26.829 6.992 26.805 C7.54 26.796 7.54 26.796 10.312 26.75 C10.858 26.738 10.858 26.738 13.617 26.68 C16.438 26.875 16.438 26.875 18.438 28.875 C17.882 33.431 17.882 33.431 16.438 34.875 C13.468 35.002 10.532 35.06 7.562 35.062 C6.734 35.075 5.905 35.087 5.051 35.1 C4.253 35.102 3.455 35.103 2.633 35.105 C1.901 35.11 1.169 35.114 0.415 35.118 C-1.562 34.875 -1.562 34.875 -4.562 32.875 C-6.579 27.641 -5.789 21.325 -5.812 15.812 C-5.833 14.616 -5.854 13.419 -5.875 12.186 C-5.88 11.04 -5.885 9.895 -5.891 8.715 C-5.9 7.667 -5.909 6.619 -5.919 5.539 C-5.562 2.875 -5.562 2.875 -4.202 1.002 C-2.562 -0.125 -2.562 -0.125 0 0 Z " fill="#ffffff" transform="translate(188.5625,328.125)"/>
<path d="M0 0 C2.438 0.938 2.438 0.938 3.573 2.639 C4.624 5.434 4.696 7.671 4.703 10.656 C4.706 11.753 4.708 12.85 4.711 13.98 C4.703 15.121 4.695 16.262 4.688 17.438 C4.695 18.578 4.703 19.719 4.711 20.895 C4.708 21.992 4.706 23.089 4.703 24.219 C4.701 25.22 4.699 26.221 4.696 27.252 C4.435 29.967 3.827 31.616 2.438 33.938 C0.127 33.938 -2.183 33.938 -4.562 33.938 C-6.673 29.716 -5.789 24.206 -5.803 19.561 C-5.812 17.511 -5.843 15.462 -5.875 13.412 C-5.88 12.122 -5.885 10.833 -5.891 9.504 C-5.9 8.317 -5.909 7.131 -5.919 5.908 C-5.562 2.938 -5.562 2.938 -4.202 1.023 C-2.562 -0.062 -2.562 -0.062 0 0 Z " fill="#ffffff" transform="translate(224.5625,328.0625)"/>
<path d="M0 0 C4.762 1.597 5.881 4.801 8.055 9.129 C8.457 9.888 8.859 10.646 9.273 11.428 C10.261 13.297 11.223 15.181 12.18 17.066 C12.229 16.007 12.278 14.947 12.328 13.855 C12.403 12.467 12.479 11.079 12.555 9.691 C12.57 9.342 12.57 9.342 12.648 7.574 C12.953 2.293 12.953 2.293 15.18 0.066 C17.68 0.254 17.68 0.254 20.18 1.066 C22.247 4.167 22.435 4.866 22.445 8.383 C22.447 8.804 22.447 8.804 22.457 10.937 C22.448 11.825 22.439 12.713 22.43 13.629 C22.426 14.529 22.422 15.429 22.418 16.356 C22.338 22.488 21.765 28.121 20.18 34.066 C17.832 34.672 17.832 34.672 15.18 35.066 C9.412 31.073 7.053 24.258 4.18 18.066 C2.985 22.049 3.187 25.706 3.34 29.824 C3.18 32.066 3.18 32.066 1.18 34.066 C-1.945 34.191 -1.945 34.191 -4.82 34.066 C-7.305 30.281 -7.125 26.434 -7.07 22.066 C-7.065 21.316 -7.06 20.566 -7.054 19.793 C-6.948 13.511 -6.623 7.118 -4.82 1.066 C-2.82 0.066 -2.82 0.066 0 0 Z " fill="#ffffff" transform="translate(321.8203125,327.93359375)"/>
<path d="M0 0 C3.094 0.464 3.604 0.913 5.5 3.375 C6.446 5.919 7.29 8.406 8.062 11 C8.812 13.495 9.613 15.921 10.5 18.375 C11.16 18.705 11.82 19.035 12.5 19.375 C12.459 18.901 12.459 18.901 12.25 16.5 C12.24 11.442 14.095 6.774 16.5 2.375 C19.724 0.226 20.767 -0.008 24.5 0.375 C27.995 3.87 27.627 8.27 27.633 13.008 C27.633 13.534 27.633 13.534 27.637 16.199 C27.633 17.288 27.629 18.378 27.625 19.5 C27.627 20.048 27.627 20.048 27.637 22.824 C27.635 23.875 27.634 24.925 27.633 26.008 C27.632 26.966 27.631 27.924 27.629 28.911 C27.5 31.375 27.5 31.375 26.5 34.375 C24.625 35.188 24.625 35.188 22.5 35.375 C21.51 34.715 20.52 34.055 19.5 33.375 C19.207 30.992 19.207 30.992 19.312 28.25 C19.34 27.34 19.367 26.43 19.395 25.492 C19.429 24.794 19.464 24.095 19.5 23.375 C16.932 25.605 16.019 27.249 15.312 30.562 C15.044 31.821 14.776 33.079 14.5 34.375 C12.188 35 12.188 35 9.5 35.375 C5.128 32.46 4.99 29.343 3.5 24.375 C2.84 27.675 2.18 30.975 1.5 34.375 C0.84 34.54 0.84 34.54 -2.5 35.375 C-5.5 33.375 -5.5 33.375 -6.5 30.375 C-6.598 27.49 -6.642 24.635 -6.625 21.75 C-6.621 20.939 -6.617 20.128 -6.613 19.293 C-6.475 4.57 -6.475 4.57 -4.113 1.676 C-2.5 0.375 -2.5 0.375 0 0 Z " fill="#ffffff" transform="translate(502.5,327.625)"/>
<path d="M0 0 C2.438 0.938 2.438 0.938 3.586 2.5 C4.79 5.948 4.608 9.275 4.5 12.875 C4.389 17.348 4.333 21.564 5.438 25.938 C6.592 25.772 6.592 25.772 12.438 24.938 C12.457 24.287 12.477 23.636 12.498 22.966 C12.593 20.018 12.702 17.072 12.812 14.125 C12.843 13.101 12.874 12.077 12.906 11.021 C12.945 10.039 12.984 9.056 13.023 8.043 C13.055 7.137 13.086 6.231 13.119 5.298 C13.438 2.938 13.438 2.938 15.438 -0.062 C20.312 0.812 20.312 0.812 21.438 1.938 C21.719 5.847 21.669 9.769 21.688 13.688 C21.708 14.786 21.729 15.884 21.75 17.016 C21.755 18.078 21.76 19.14 21.766 20.234 C21.77 20.721 21.77 20.721 21.794 23.183 C21.274 27.203 19.626 29.888 16.605 32.555 C13.333 34.633 11.254 35.921 7.312 36 C1.727 33.936 -1.843 31.376 -4.742 26.086 C-6.34 21.9 -6.095 17.611 -6 13.188 C-6.007 12.243 -6.014 11.298 -6.021 10.324 C-5.958 3.457 -5.958 3.457 -4.196 1.144 C-2.562 -0.062 -2.562 -0.062 0 0 Z " fill="#ffffff" transform="translate(584.5625,328.0625)"/>
<path d="M0 0 C2.574 1.245 2.904 2.293 3.938 4.938 C4.363 9.073 4.262 13.22 4.25 17.375 C4.266 18.507 4.282 19.64 4.299 20.807 C4.299 21.9 4.3 22.994 4.301 24.121 C4.302 24.619 4.302 24.619 4.31 27.138 C3.88 30.367 2.775 32.28 0.938 34.938 C-1.5 34.562 -1.5 34.562 -4.062 33.938 C-6.173 29.716 -5.289 24.206 -5.303 19.561 C-5.312 17.511 -5.343 15.462 -5.375 13.412 C-5.38 12.122 -5.385 10.833 -5.391 9.504 C-5.4 8.317 -5.409 7.131 -5.419 5.908 C-5.062 2.938 -5.062 2.938 -3.671 1.023 C-2.062 -0.062 -2.062 -0.062 0 0 Z " fill="#ffffff" transform="translate(662.0625,328.0625)"/>
<path d="M0 0 C2.836 -0.057 4.426 -0.057 7 1 C10.162 4.462 12.377 8.366 14.043 12.734 C15 15 15 15 17 16 C16.983 15.59 16.983 15.59 16.895 13.516 C16.867 12.438 16.84 11.36 16.812 10.25 C16.795 9.716 16.795 9.716 16.707 7.016 C17.029 3.7 17.771 2.41 20 0 C22.438 0.375 22.438 0.375 25 1 C27.279 5.558 26.23 11.871 26.25 16.875 C26.271 18.168 26.291 19.461 26.312 20.793 C26.318 22.034 26.323 23.276 26.328 24.555 C26.333 25.124 26.333 25.124 26.356 28.007 C25.968 31.27 25.204 32.621 23 35 C20.188 34.812 20.188 34.812 17 34 C15.375 31.938 15.375 31.938 14 29 C13.648 28.327 13.296 27.654 12.934 26.961 C10 21.339 10 21.339 10 19 C8.68 18.67 7.36 18.34 6 18 C6.165 18.639 6.33 19.279 6.5 19.938 C7.159 23.977 7.604 27.929 7 32 C5 34.062 5 34.062 3 35 C-0.875 33.25 -0.875 33.25 -2 31 C-2.244 27.109 -2.185 23.21 -2.188 19.312 C-2.2 18.235 -2.212 17.158 -2.225 16.049 C-2.235 10.3 -1.962 5.421 0 0 Z " fill="#ffffff" transform="translate(680,328)"/>
<path d="M0 0 C5.019 1.834 6.678 5.687 9.25 10.188 C9.668 10.898 10.085 11.608 10.516 12.34 C11.447 13.944 12.352 15.564 13.25 17.188 C13.238 16.284 13.227 15.38 13.215 14.449 C13.206 13.27 13.197 12.09 13.188 10.875 C13.176 9.703 13.164 8.531 13.152 7.324 C13.25 4.188 13.25 4.188 14.25 1.188 C16.562 0.5 16.562 0.5 19.25 0.188 C20.895 1.337 20.895 1.337 22.25 3.188 C22.622 5.62 22.622 5.62 22.613 8.484 C22.613 9.526 22.612 10.567 22.611 11.641 C22.595 12.729 22.579 13.817 22.562 14.938 C22.564 15.474 22.564 15.474 22.572 18.188 C22.534 23.898 22.182 28.801 20.25 34.188 C18.562 35 18.562 35 16.25 35.188 C11.171 31.151 7.299 25.335 5.25 19.188 C4.59 18.858 3.93 18.527 3.25 18.188 C3.345 19.091 3.441 19.995 3.539 20.926 C3.65 22.105 3.761 23.285 3.875 24.5 C3.991 25.672 4.107 26.844 4.227 28.051 C4.25 31.188 4.25 31.188 2.25 34.188 C-0.75 34.5 -0.75 34.5 -3.75 34.188 C-5.75 32.188 -5.75 32.188 -5.993 30.176 C-5.989 29.364 -5.985 28.551 -5.98 27.715 C-5.979 26.814 -5.977 25.914 -5.975 24.986 C-5.962 24.042 -5.95 23.098 -5.938 22.125 C-5.937 21.208 -5.936 20.291 -5.936 19.346 C-5.815 0.396 -5.815 0.396 0 0 Z " fill="#ffffff" transform="translate(848.75,327.8125)"/>
<path d="M0 0 C2.706 0.208 4.447 0.579 6.621 2.234 C8.426 4.545 8.462 6.158 8.625 9.062 C8.92 13.839 8.92 13.839 10 16 C10.266 15.013 10.531 14.025 10.805 13.008 C11.161 11.713 11.518 10.419 11.875 9.125 C12.049 8.474 12.223 7.823 12.402 7.152 C13.773 2.227 13.773 2.227 16 0 C18.721 -0.349 20.314 -0.49 22.586 1.133 C24.544 3.718 24.741 5.996 25.188 9.188 C25.346 10.274 25.505 11.361 25.668 12.48 C25.778 13.312 25.887 14.143 26 15 C26.66 14.67 27.32 14.34 28 14 C28.608 11.236 28.959 8.468 29.34 5.664 C30.05 2.796 30.636 1.723 33 0 C35.625 -0.25 35.625 -0.25 38 0 C39 1 39 1 39.188 4.125 C38.995 8.107 38.178 11.203 37 15 C36.699 16.436 36.408 17.873 36.125 19.312 C35.352 22.793 34.381 26.139 33.188 29.5 C32.892 30.335 32.597 31.171 32.293 32.031 C31 34 31 34 28.613 34.969 C26 35 26 35 23.797 33.918 C21.523 31.491 21.008 29.534 20.25 26.312 C20.008 25.319 19.765 24.325 19.516 23.301 C19.345 22.542 19.175 21.782 19 21 C17.162 23.758 16.699 24.908 16.125 28 C15.466 30.77 15.08 31.906 13.188 34.125 C11 35 11 35 8.496 34.324 C4.734 32.328 4.304 29.877 2.91 26.012 C1.582 21.617 0.561 17.178 -0.387 12.688 C-1 10 -1 10 -2 8 C-2.188 5 -2.188 5 -2 2 C-1.34 1.34 -0.68 0.68 0 0 Z " fill="#ffffff" transform="translate(957,328)"/>
<path d="M0 0 C0.749 3.663 1.238 6.424 0 10 C0.701 9.299 1.402 8.598 2.125 7.875 C2.583 7.425 3.04 6.975 3.512 6.512 C4.525 5.482 5.507 4.42 6.457 3.332 C10.285 -0.921 10.285 -0.921 14.375 -1.375 C15.241 -1.251 16.108 -1.127 17 -1 C17.33 -0.01 17.66 0.98 18 2 C14.732 7.634 14.732 7.634 12 9 C11.67 9.99 11.34 10.98 11 12 C8.938 12.688 8.938 12.688 7 13 C8.755 18.408 12.145 21.464 16.102 25.402 C18.382 28.523 18.385 30.221 18 34 C11.524 33.389 11.524 33.389 9.062 31.562 C8 30 8 30 8 28 C7.01 27.67 6.02 27.34 5 27 C4.333 25.667 3.667 24.333 3 23 C2.01 22.67 1.02 22.34 0 22 C0.119 22.615 0.237 23.23 0.359 23.863 C0.746 26.286 1.048 28.545 1 31 C-0.938 33.062 -0.938 33.062 -3 34 C-6.875 32.25 -6.875 32.25 -8 30 C-8.097 28.003 -8.131 26.003 -8.133 24.004 C-8.134 22.806 -8.135 21.608 -8.137 20.373 C-8.135 19.744 -8.135 19.744 -8.125 16.562 C-8.129 15.309 -8.133 14.055 -8.137 12.764 C-8.135 11.564 -8.134 10.365 -8.133 9.129 C-8.132 8.026 -8.131 6.923 -8.129 5.787 C-8 3 -8 3 -7 0 C-4.333 -1.333 -2.833 -0.671 0 0 Z " fill="#ffffff" transform="translate(1094,329)"/>
<path d="M0 0 C2.111 4.222 1.227 9.732 1.24 14.376 C1.25 16.426 1.281 18.475 1.312 20.525 C1.318 21.815 1.323 23.105 1.328 24.434 C1.337 25.62 1.347 26.807 1.356 28.029 C1 31 1 31 -0.521 32.91 C-1.009 33.27 -1.497 33.63 -2 34 C-3.98 33.34 -5.96 32.68 -8 32 C-9.209 26.296 -9.184 20.677 -9.188 14.875 C-9.2 13.886 -9.212 12.898 -9.225 11.879 C-9.227 10.926 -9.228 9.974 -9.23 8.992 C-9.235 8.13 -9.239 7.267 -9.243 6.378 C-8.979 3.79 -8.389 2.189 -7 0 C-4.302 -1.349 -2.848 -0.803 0 0 Z " fill="#ffffff" transform="translate(1132,329)"/>
<path d="M0 0 C3.697 0.08 5.446 0.462 8.125 3.062 C14 12.267 14 12.267 14 16 C14.66 16 15.32 16 16 16 C15.983 15.506 15.983 15.506 15.895 13.008 C15.867 11.726 15.84 10.445 15.812 9.125 C15.795 8.487 15.795 8.487 15.707 5.258 C15.804 4.183 15.9 3.108 16 2 C19 0 19 0 21.625 0.25 C22.409 0.498 23.193 0.745 24 1 C26.279 5.558 25.23 11.871 25.25 16.875 C25.271 18.168 25.291 19.461 25.312 20.793 C25.318 22.034 25.323 23.276 25.328 24.555 C25.333 25.124 25.333 25.124 25.356 28.007 C24.968 31.27 24.204 32.621 22 35 C19.305 34.996 19.305 34.996 16 34 C13.923 31.595 12.559 28.885 11.125 26.062 C10.723 25.321 10.321 24.579 9.906 23.814 C7 18.363 7 18.363 7 16 C6.34 16 5.68 16 5 16 C5.165 16.784 5.33 17.567 5.5 18.375 C5.911 21.356 6.162 24.186 6.25 27.188 C6.263 27.607 6.263 27.607 6.328 29.73 C5.934 32.457 5.106 33.298 3 35 C1.35 34.34 -0.3 33.68 -2 33 C-2.049 28.622 -2.086 24.244 -2.11 19.865 C-2.12 18.375 -2.134 16.885 -2.151 15.396 C-2.175 13.256 -2.186 11.116 -2.195 8.977 C-2.201 8.332 -2.201 8.332 -2.227 5.073 C-2 2 -2 2 0 0 Z " fill="#ffffff" transform="translate(1148,328)"/>
<path d="M0 0 C0.784 0.248 1.568 0.495 2.375 0.75 C3.633 3.267 3.583 5.163 3.691 7.977 C3.712 8.492 3.712 8.492 3.818 11.102 C3.858 12.182 3.897 13.262 3.938 14.375 C3.981 15.463 4.024 16.551 4.068 17.672 C4.175 20.364 4.277 23.057 4.375 25.75 C5.218 25.799 6.061 25.848 6.93 25.898 C8.025 25.973 9.121 26.048 10.25 26.125 C11.341 26.195 12.431 26.264 13.555 26.336 C16.375 26.75 16.375 26.75 18.375 28.75 C18.125 31.312 18.125 31.312 17.375 33.75 C14.118 35.378 10.575 35.018 7 35.062 C6.232 35.092 5.463 35.121 4.672 35.15 C3.927 35.159 3.182 35.167 2.414 35.176 C1.736 35.19 1.057 35.205 0.358 35.22 C-2.658 34.505 -3.79 33.216 -5.625 30.75 C-6.127 27.666 -6.127 27.666 -6.121 24.086 C-6.122 22.799 -6.122 21.513 -6.123 20.188 C-6.113 19.521 -6.102 18.855 -6.092 18.168 C-6.062 16.124 -6.071 14.083 -6.084 12.039 C-6.036 4.621 -6.036 4.621 -5.625 1.75 C-2.625 -0.25 -2.625 -0.25 0 0 Z " fill="#ffffff" transform="translate(1253.625,328.25)"/>
<path d="M0 0 C2.31 0 4.62 0 7 0 C7.227 0.569 7.453 1.138 7.687 1.725 C8.728 4.338 9.77 6.95 10.812 9.562 C10.991 10.01 10.991 10.01 11.893 12.275 C13.456 16.191 15.027 20.089 16.75 23.938 C18.082 27.201 18.255 29.511 18 33 C15.016 33.912 13.595 34.297 10.75 32.875 C8.641 30.616 8.328 29.032 8 26 C2.802 25.383 2.802 25.383 0 26 C-1.607 27.667 -2.658 29.387 -3.836 31.375 C-5 33 -5 33 -7.812 33.938 C-8.173 33.948 -8.173 33.948 -10 34 C-12 31 -12 31 -11.812 28.188 C-10.945 24.784 -9.594 22.126 -8 19 C-7.522 17.59 -7.065 16.172 -6.625 14.75 C-4.969 9.55 -2.543 4.815 0 0 Z M3 13 C2.34 13.66 1.68 14.32 1 15 C1 15.99 1 16.98 1 18 C2.32 18 3.64 18 5 18 C4.67 16.35 4.34 14.7 4 13 C3.67 13 3.34 13 3 13 Z " fill="#ffffff" transform="translate(1294,329)"/>
</svg>
