<?xml version="1.0" encoding="UTF-8"?>
<!-- Generator: visioncortex VTracer 0.6.12 -->
<svg version="1.1" xmlns="http://www.w3.org/2000/svg" width="813" height="308">
<path d="M0 0 C6.93 0 13.86 0 21 0 C21 0.33 21 0.66 21 1 C23.31 1.165 23.31 1.165 35 2 C35 2.33 35 2.66 35 3 C37.31 3.33 39.62 3.66 42 4 C42 4.66 42 5.32 42 6 C43.98 6 45.96 6 48 6 C48 6.66 48 7.32 48 8 C48.66 8 49.32 8 50 8 C50 8.99 50 9.98 50 11 C51.65 11 53.3 11 55 11 C55 11.66 55 12.32 55 13 C56.32 13 57.64 13 59 13 C59 13.66 59 14.32 59 15 C60.32 15 61.64 15 63 15 C63 15.66 63 16.32 63 17 C63.66 17 64.32 17 65 17 C65 17.66 65 18.32 65 19 C65.99 19 66.98 19 68 19 C68 19.66 68 20.32 68 21 C68.66 21 69.32 21 70 21 C70 21.99 70 22.98 70 24 C70.99 24.33 71.98 24.66 73 25 C73.66 25.33 74.32 25.66 75 26 C75 26.66 75 27.32 75 28 C75.66 28 76.32 28 77 28 C77 28.66 77 29.32 77 30 C77.66 30 78.32 30 79 30 C79 30.99 79 31.98 79 33 C79.66 33 80.32 33 81 33 C81 33.66 81 34.32 81 35 C81.66 35 82.32 35 83 35 C83.33 36.32 83.66 37.64 84 39 C84.66 39 85.32 39 86 39 C86 39.99 86 40.98 86 42 C86.66 42 87.32 42 88 42 C88 43.32 88 44.64 88 46 C88.66 46 89.32 46 90 46 C90 47.32 90 48.64 90 50 C90.66 50 91.32 50 92 50 C92 51.65 92 53.3 92 55 C92.66 55 93.32 55 94 55 C94 56.98 94 58.96 94 61 C94.99 61 95.98 61 97 61 C97 63.97 97 66.94 97 70 C97.66 70 98.32 70 99 70 C99 80.89 99 91.78 99 103 C98.34 103 97.68 103 97 103 C97.023 103.626 97.046 104.253 97.07 104.898 C97.088 105.716 97.106 106.533 97.125 107.375 C97.148 108.187 97.171 108.999 97.195 109.836 C97 112 97 112 95 114 C94.655 116.332 94.322 118.665 94 121 C92.938 123.438 92.938 123.438 92 125 C91.34 125 90.68 125 90 125 C90 126.32 90 127.64 90 129 C89.34 129 88.68 129 88 129 C87.856 129.598 87.711 130.196 87.562 130.812 C87.113 132.562 86.571 134.287 86 136 C85.34 136 84.68 136 84 136 C83.67 137.32 83.34 138.64 83 140 C82.34 140 81.68 140 81 140 C81 140.99 81 141.98 81 143 C80.34 143 79.68 143 79 143 C79 143.66 79 144.32 79 145 C78.34 145 77.68 145 77 145 C77 145.66 77 146.32 77 147 C76.34 147 75.68 147 75 147 C74.67 147.99 74.34 148.98 74 150 C73.34 150 72.68 150 72 150 C72 150.66 72 151.32 72 152 C71.34 152 70.68 152 70 152 C70 152.66 70 153.32 70 154 C69.34 154 68.68 154 68 154 C68 154.66 68 155.32 68 156 C67.01 156 66.02 156 65 156 C65 156.66 65 157.32 65 158 C63.68 158 62.36 158 61 158 C61 158.66 61 159.32 61 160 C60.34 160 59.68 160 59 160 C59 160.99 59 161.98 59 163 C57.68 163 56.36 163 55 163 C55 163.66 55 164.32 55 165 C53.35 165 51.7 165 50 165 C50 165.66 50 166.32 50 167 C48.68 167 47.36 167 46 167 C46 167.66 46 168.32 46 169 C44.68 169 43.36 169 42 169 C42 169.66 42 170.32 42 171 C39.69 171 37.38 171 35 171 C35 171.66 35 172.32 35 173 C32.03 173 29.06 173 26 173 C26 173.99 26 174.98 26 176 C21.337 176.049 16.674 176.086 12.011 176.11 C10.424 176.12 8.837 176.134 7.25 176.151 C4.971 176.175 2.693 176.186 0.414 176.195 C-0.297 176.206 -1.009 176.216 -1.742 176.227 C-3.496 176.227 -5.25 176.122 -7 176 C-7.66 175.34 -8.32 174.68 -9 174 C-11.164 173.586 -11.164 173.586 -13.625 173.375 C-14.442 173.3 -15.26 173.225 -16.102 173.148 C-16.415 173.124 -16.415 173.124 -18 173 C-18 172.34 -18 171.68 -18 171 C-19.98 171 -21.96 171 -24 171 C-24 170.67 -24 170.34 -24 170 C-25.65 169.67 -27.3 169.34 -29 169 C-29 168.34 -29 167.68 -29 167 C-30.32 167 -31.64 167 -33 167 C-33 166.34 -33 165.68 -33 165 C-34.65 165 -36.3 165 -38 165 C-38 164.34 -38 163.68 -38 163 C-38.66 163 -39.32 163 -40 163 C-40 162.01 -40 161.02 -40 160 C-41.32 160 -42.64 160 -44 160 C-44 159.34 -44 158.68 -44 158 C-44.99 158 -45.98 158 -47 158 C-47 157.34 -47 156.68 -47 156 C-47.66 156 -48.32 156 -49 156 C-49 155.34 -49 154.68 -49 154 C-49.66 154 -50.32 154 -51 154 C-51 153.34 -51 152.68 -51 152 C-52.32 151.67 -53.64 151.34 -55 151 C-55 149.68 -55 148.36 -55 147 C-55.99 147 -56.98 147 -58 147 C-58 146.34 -58 145.68 -58 145 C-58.66 145 -59.32 145 -60 145 C-60 144.34 -60 143.68 -60 143 C-60.66 143 -61.32 143 -62 143 C-62 142.34 -62 141.68 -62 141 C-62.66 141 -63.32 141 -64 141 C-64 140.01 -64 139.02 -64 138 C-64.66 138 -65.32 138 -66 138 C-66 136.68 -66 135.36 -66 134 C-66.66 134 -67.32 134 -68 134 C-68 132.68 -68 131.36 -68 130 C-68.66 130 -69.32 130 -70 130 C-70.165 129.175 -70.165 129.175 -71 125 C-71.66 125 -72.32 125 -73 125 C-73 123.68 -73 122.36 -73 121 C-73.66 121 -74.32 121 -75 121 C-75 118.69 -75 116.38 -75 114 C-75.66 114 -76.32 114 -77 114 C-77 111.03 -77 108.06 -77 105 C-77.66 105 -78.32 105 -79 105 C-79 93.45 -79 81.9 -79 70 C-78.34 70 -77.68 70 -77 70 C-77 67.69 -77 65.38 -77 63 C-76.34 63 -75.68 63 -75 63 C-75 61.02 -75 59.04 -75 57 C-74.34 57 -73.68 57 -73 57 C-73 54.69 -73 52.38 -73 50 C-72.01 50 -71.02 50 -70 50 C-70 48.68 -70 47.36 -70 46 C-69.34 46 -68.68 46 -68 46 C-68 45.34 -68 44.68 -68 44 C-67.34 44 -66.68 44 -66 44 C-66 42.35 -66 40.7 -66 39 C-65.361 38.732 -64.721 38.464 -64.062 38.188 C-62 37 -62 37 -61 34 C-60.67 33.01 -60.34 32.02 -60 31 C-59.34 31 -58.68 31 -58 31 C-58 30.01 -58 29.02 -58 28 C-57.01 28 -56.02 28 -55 28 C-55 27.34 -55 26.68 -55 26 C-54.34 26 -53.68 26 -53 26 C-53 25.34 -53 24.68 -53 24 C-52.34 24 -51.68 24 -51 24 C-51 23.34 -51 22.68 -51 22 C-49.68 21.67 -48.36 21.34 -47 21 C-47 20.34 -47 19.68 -47 19 C-46.34 19 -45.68 19 -45 19 C-45 18.34 -45 17.68 -45 17 C-44.01 17 -43.02 17 -42 17 C-42 16.34 -42 15.68 -42 15 C-40.68 15 -39.36 15 -38 15 C-38 14.34 -38 13.68 -38 13 C-37.01 13 -36.02 13 -35 13 C-35 12.34 -35 11.68 -35 11 C-33.68 11 -32.36 11 -31 11 C-31 10.01 -31 9.02 -31 8 C-29.35 8 -27.7 8 -26 8 C-26 7.34 -26 6.68 -26 6 C-24.02 6 -22.04 6 -20 6 C-20 5.34 -20 4.68 -20 4 C-18.845 3.835 -18.845 3.835 -13 3 C-13 2.67 -13 2.34 -13 2 C-8.71 1.67 -4.42 1.34 0 1 C0 0.67 0 0.34 0 0 Z M-3 24 C-3 24.66 -3 25.32 -3 26 C-5.64 26 -8.28 26 -11 26 C-11 26.66 -11 27.32 -11 28 C-12.65 28 -14.3 28 -16 28 C-16 28.66 -16 29.32 -16 30 C-17.32 30.33 -18.64 30.66 -20 31 C-20 31.66 -20 32.32 -20 33 C-21.32 33 -22.64 33 -24 33 C-24 33.66 -24 34.32 -24 35 C-24.66 35 -25.32 35 -26 35 C-26 35.66 -26 36.32 -26 37 C-26.99 37 -27.98 37 -29 37 C-29 37.66 -29 38.32 -29 39 C-29.66 39 -30.32 39 -31 39 C-31 39.99 -31 40.98 -31 42 C-31.66 42 -32.32 42 -33 42 C-33 42.66 -33 43.32 -33 44 C-33.66 44 -34.32 44 -35 44 C-35.33 45.32 -35.66 46.64 -36 48 C-36.66 48 -37.32 48 -38 48 C-38 48.66 -38 49.32 -38 50 C-38.66 50 -39.32 50 -40 50 C-40 51.65 -40 53.3 -40 55 C-40.66 55 -41.32 55 -42 55 C-42 56.32 -42 57.64 -42 59 C-42.66 59 -43.32 59 -44 59 C-44 61.31 -44 63.62 -44 66 C-44.33 66.165 -44.33 66.165 -46 67 C-47.683 72.96 -47.184 79.301 -47.188 85.438 C-47.2 86.652 -47.212 87.867 -47.225 89.119 C-47.227 90.295 -47.228 91.472 -47.23 92.684 C-47.235 93.752 -47.239 94.819 -47.243 95.92 C-46.982 99.233 -46.122 101.883 -45 105 C-44.625 107.327 -44.281 109.66 -44 112 C-43.34 112 -42.68 112 -42 112 C-42 113.32 -42 114.64 -42 116 C-41.34 116 -40.68 116 -40 116 C-40 117.65 -40 119.3 -40 121 C-39.34 121 -38.68 121 -38 121 C-37.67 122.32 -37.34 123.64 -37 125 C-36.34 125 -35.68 125 -35 125 C-35 125.66 -35 126.32 -35 127 C-34.34 127 -33.68 127 -33 127 C-33 128.32 -33 129.64 -33 131 C-32.34 131 -31.68 131 -31 131 C-31 131.99 -31 132.98 -31 134 C-30.34 134 -29.68 134 -29 134 C-29 134.66 -29 135.32 -29 136 C-28.01 136 -27.02 136 -26 136 C-26 136.66 -26 137.32 -26 138 C-25.34 138 -24.68 138 -24 138 C-24 138.66 -24 139.32 -24 140 C-23.34 140 -22.68 140 -22 140 C-22 140.66 -22 141.32 -22 142 C-20.68 142.33 -19.36 142.66 -18 143 C-18 143.66 -18 144.32 -18 145 C-17.34 145 -16.68 145 -16 145 C-16 145.66 -16 146.32 -16 147 C-14.35 147 -12.7 147 -11 147 C-11 147.66 -11 148.32 -11 149 C-3.355 151.458 3.547 152.472 11.562 152.375 C12.526 152.387 13.49 152.398 14.482 152.41 C21.112 152.383 26.768 151.245 33 149 C33 148.34 33 147.68 33 147 C34.32 147 35.64 147 37 147 C37 146.34 37 145.68 37 145 C38.65 145 40.3 145 42 145 C42 144.34 42 143.68 42 143 C43.32 142.67 44.64 142.34 46 142 C46 141.34 46 140.68 46 140 C46.66 140 47.32 140 48 140 C48 139.34 48 138.68 48 138 C48.66 138 49.32 138 50 138 C50 137.34 50 136.68 50 136 C50.66 136 51.32 136 52 136 C52 134.68 52 133.36 52 132 C52.495 132.165 52.495 132.165 55 133 C55 131.68 55 130.36 55 129 C55.66 129 56.32 129 57 129 C57.66 128.34 58.32 127.68 59 127 C59 125.68 59 124.36 59 123 C59.66 123 60.32 123 61 123 C61 120.69 61 118.38 61 116 C61.66 116 62.32 116 63 116 C63 114.02 63 112.04 63 110 C63.66 110 64.32 110 65 110 C66.501 97.353 66.501 84.647 65 72 C64.34 72 63.68 72 63 72 C63 70.02 63 68.04 63 66 C62.34 66 61.68 66 61 66 C61 63.69 61 61.38 61 59 C60.34 59 59.68 59 59 59 C59 57.68 59 56.36 59 55 C58.34 55 57.68 55 57 55 C57 53.35 57 51.7 57 50 C56.34 50 55.68 50 55 50 C55 49.34 55 48.68 55 48 C54.01 48 53.02 48 52 48 C52 46.68 52 45.36 52 44 C51.34 44 50.68 44 50 44 C50 43.34 50 42.68 50 42 C49.34 42 48.68 42 48 42 C47.835 41.505 47.835 41.505 47 39 C46.835 38.67 46.835 38.67 46 37 C45.34 37 44.68 37 44 37 C44 36.34 44 35.68 44 35 C43.34 35 42.68 35 42 35 C42 34.34 42 33.68 42 33 C39.69 32.34 37.38 31.68 35 31 C35 30.34 35 29.68 35 29 C33.02 28.67 31.04 28.34 29 28 C29 27.34 29 26.68 29 26 C26.69 26 24.38 26 22 26 C22 25.34 22 24.68 22 24 C13.75 24 5.5 24 -3 24 Z M67 92 C68 94 68 94 68 94 Z " fill="#ffffff" transform="translate(225,0)"/>
<path d="M0 0 C21.12 0 42.24 0 64 0 C64 0.66 64 1.32 64 2 C68.29 2 72.58 2 77 2 C77 2.66 77 3.32 77 4 C78.98 4 80.96 4 83 4 C83 4.99 83 5.98 83 7 C84.65 7 86.3 7 88 7 C88 7.66 88 8.32 88 9 C89.32 9 90.64 9 92 9 C92 9.66 92 10.32 92 11 C92.66 11 93.32 11 94 11 C94 11.66 94 12.32 94 13 C94.66 13 95.32 13 96 13 C96 13.66 96 14.32 96 15 C96.99 15 97.98 15 99 15 C99 15.66 99 16.32 99 17 C99.66 17 100.32 17 101 17 C101 17.99 101 18.98 101 20 C101.66 20 102.32 20 103 20 C103 21.32 103 22.64 103 24 C103.66 24 104.32 24 105 24 C108.55 30.939 111.467 40.347 109 48 C108.641 49.582 108.287 51.166 107.938 52.75 C107.761 53.549 107.584 54.348 107.402 55.172 C107.27 55.775 107.137 56.378 107 57 C106.34 57 105.68 57 105 57 C105 58.65 105 60.3 105 62 C104.34 62 103.68 62 103 62 C103 63.32 103 64.64 103 66 C102.34 66 101.68 66 101 66 C101 66.66 101 67.32 101 68 C100.34 68 99.68 68 99 68 C98.732 68.639 98.464 69.279 98.188 69.938 C97 72 97 72 94 73 C94 73.66 94 74.32 94 75 C93.34 75 92.68 75 92 75 C92 75.66 92 76.32 92 77 C91.34 77 90.68 77 90 77 C90 77.66 90 78.32 90 79 C89.34 79 88.68 79 88 79 C88 79.66 88 80.32 88 81 C86.35 81.33 84.7 81.66 83 82 C83 82.66 83 83.32 83 84 C81.68 84 80.36 84 79 84 C79 84.66 79 85.32 79 86 C77.68 86 76.36 86 75 86 C75 87.32 75 88.64 75 90 C75.66 90 76.32 90 77 90 C79 92 79 92 79 95 C79.66 95 80.32 95 81 95 C81 95.66 81 96.32 81 97 C81.66 97 82.32 97 83 97 C83 98.32 83 99.64 83 101 C83.99 101 84.98 101 86 101 C86 101.99 86 102.98 86 104 C86.66 104 87.32 104 88 104 C88 104.66 88 105.32 88 106 C88.66 106 89.32 106 90 106 C90 106.66 90 107.32 90 108 C90.66 108 91.32 108 92 108 C92 109.32 92 110.64 92 112 C92.66 112 93.32 112 94 112 C94 112.66 94 113.32 94 114 C94.66 114 95.32 114 96 114 C96 114.99 96 115.98 96 117 C96.66 117 97.32 117 98 117 C98 117.66 98 118.32 98 119 C98.99 119 99.98 119 101 119 C101 120.32 101 121.64 101 123 C101.66 123 102.32 123 103 123 C103 123.66 103 124.32 103 125 C103.66 125 104.32 125 105 125 C106.289 126.461 106.289 126.461 107.625 128.375 C108.071 129.001 108.517 129.628 108.977 130.273 C110 132 110 132 110 134 C110.66 134 111.32 134 112 134 C112 134.66 112 135.32 112 136 C112.66 136 113.32 136 114 136 C114 136.99 114 137.98 114 139 C114.66 139 115.32 139 116 139 C116 139.66 116 140.32 116 141 C116.99 141 117.98 141 119 141 C119 141.66 119 142.32 119 143 C119.66 143 120.32 143 121 143 C121 143.66 121 144.32 121 145 C121.66 145 122.32 145 123 145 C123 145.99 123 146.98 123 148 C123.66 148 124.32 148 125 148 C125 148.66 125 149.32 125 150 C125.99 150 126.98 150 128 150 C128 150.66 128 151.32 128 152 C128.66 152 129.32 152 130 152 C130 152.66 130 153.32 130 154 C130.66 154 131.32 154 132 154 C132 154.66 132 155.32 132 156 C132.66 156 133.32 156 134 156 C134.66 156.66 135.32 157.32 136 158 C136.66 158.33 137.32 158.66 138 159 C138 159.66 138 160.32 138 161 C138.99 161 139.98 161 141 161 C141 161.66 141 162.32 141 163 C141.619 163.144 142.238 163.289 142.875 163.438 C145 164 145 164 147 165 C147 165.66 147 166.32 147 167 C134.79 167 122.58 167 110 167 C110 166.34 110 165.68 110 165 C107.69 165 105.38 165 103 165 C102.34 163.68 101.68 162.36 101 161 C99.35 161 97.7 161 96 161 C96 160.34 96 159.68 96 159 C95.34 159 94.68 159 94 159 C94 158.01 94 157.02 94 156 C93.34 156 92.68 156 92 156 C92 154.68 92 153.36 92 152 C91.34 152 90.68 152 90 152 C90 151.34 90 150.68 90 150 C89.34 150 88.68 150 88 150 C88 149.34 88 148.68 88 148 C87.34 148 86.68 148 86 148 C86 147.01 86 146.02 86 145 C85.01 145 84.02 145 83 145 C83 143.68 83 142.36 83 141 C82.34 141 81.68 141 81 141 C81 140.34 81 139.68 81 139 C80.34 139 79.68 139 79 139 C79 138.01 79 137.02 79 136 C78.34 136 77.68 136 77 136 C77 134.68 77 133.36 77 132 C76.34 132 75.68 132 75 132 C75 131.34 75 130.68 75 130 C74.34 130 73.68 130 73 130 C73 129.34 73 128.68 73 128 C72.01 128 71.02 128 70 128 C70 127.01 70 126.02 70 125 C69.34 125 68.68 125 68 125 C68 123.68 68 122.36 68 121 C67.34 121 66.68 121 66 121 C66 120.34 66 119.68 66 119 C65.34 119 64.68 119 64 119 C64 118.34 64 117.68 64 117 C63.34 117 62.68 117 62 117 C61.67 115.35 61.34 113.7 61 112 C60.34 112 59.68 112 59 112 C59 111.34 59 110.68 59 110 C58.34 110 57.68 110 57 110 C57 109.34 57 108.68 57 108 C56.34 108 55.68 108 55 108 C55 107.34 55 106.68 55 106 C54.34 106 53.68 106 53 106 C52.67 104.35 52.34 102.7 52 101 C51.34 101 50.68 101 50 101 C50 100.34 50 99.68 50 99 C49.34 99 48.68 99 48 99 C48 98.34 48 97.68 48 97 C47.34 97 46.68 97 46 97 C46 95.68 46 94.36 46 93 C45.34 93 44.68 93 44 93 C44 92.34 44 91.68 44 91 C43.01 91 42.02 91 41 91 C41 90.01 41 89.02 41 88 C40.34 88 39.68 88 39 88 C39 87.34 39 86.68 39 86 C38.34 86 37.68 86 37 86 C37 84.68 37 83.36 37 82 C36.34 82 35.68 82 35 82 C35 81.01 35 80.02 35 79 C36.32 79 37.64 79 39 79 C39 78.34 39 77.68 39 77 C42.63 77 46.26 77 50 77 C50 76.34 50 75.68 50 75 C52.31 75 54.62 75 57 75 C57 74.34 57 73.68 57 73 C57.825 72.835 57.825 72.835 62 72 C62 71.34 62 70.68 62 70 C63.32 70 64.64 70 66 70 C66 69.34 66 68.68 66 68 C66.66 68 67.32 68 68 68 C68 67.34 68 66.68 68 66 C68.66 66 69.32 66 70 66 C70 65.34 70 64.68 70 64 C70.99 64 71.98 64 73 64 C73 63.34 73 62.68 73 62 C73.66 62 74.32 62 75 62 C75 61.01 75 60.02 75 59 C75.66 59 76.32 59 77 59 C77 56.36 77 53.72 77 51 C77.33 51 77.66 51 78 51 C78 48.03 78 45.06 78 42 C77.67 42 77.34 42 77 42 C77 39.69 77 37.38 77 35 C76.34 35 75.68 35 75 35 C74.959 34.381 74.918 33.763 74.875 33.125 C74.586 32.424 74.298 31.722 74 31 C70.938 29.75 70.938 29.75 68 29 C68 28.34 68 27.68 68 27 C66.742 26.856 65.484 26.711 64.188 26.562 C61.573 26.263 59.526 25.842 57 25 C55.155 24.851 53.306 24.752 51.457 24.684 C50.384 24.642 49.311 24.6 48.205 24.557 C47.086 24.517 45.966 24.478 44.812 24.438 C43.681 24.394 42.55 24.351 41.385 24.307 C38.59 24.201 35.795 24.098 33 24 C33 23.34 33 22.68 33 22 C32.34 22 31.68 22 31 22 C31 69.85 31 117.7 31 167 C20.77 167 10.54 167 0 167 C0 111.89 0 56.78 0 0 Z " fill="#ffffff" transform="translate(359,4)"/>
<path d="M0 0 C31.02 0 62.04 0 94 0 C94 0.66 94 1.32 94 2 C94.66 2 95.32 2 96 2 C96 9.26 96 16.52 96 24 C73.56 24 51.12 24 28 24 C28 37.86 28 51.72 28 66 C45.49 66 62.98 66 81 66 C81 73.26 81 80.52 81 88 C68.79 88 56.58 88 44 88 C44 88.66 44 89.32 44 90 C38.72 90 33.44 90 28 90 C28 107.49 28 124.98 28 143 C53.74 143 79.48 143 106 143 C105.67 147.95 105.34 152.9 105 158 C104.34 158 103.68 158 103 158 C103 160.97 103 163.94 103 167 C68.68 167 34.36 167 -1 167 C-1.95 163.202 -2.123 160.297 -2.12 156.407 C-2.121 155.746 -2.122 155.085 -2.123 154.404 C-2.124 152.192 -2.119 149.979 -2.114 147.767 C-2.113 146.18 -2.113 144.593 -2.114 143.006 C-2.114 138.699 -2.108 134.391 -2.101 130.084 C-2.095 125.582 -2.095 121.08 -2.093 116.579 C-2.09 108.054 -2.082 99.53 -2.072 91.005 C-2.061 81.3 -2.055 71.596 -2.05 61.891 C-2.04 41.927 -2.022 21.964 -2 2 C-1.34 2 -0.68 2 0 2 C0 1.34 0 0.68 0 0 Z " fill="#ffffff" transform="translate(526,4)"/>
<path d="M0 0 C9.24 0 18.48 0 28 0 C28.165 0.66 28.165 0.66 29 4 C29.66 4 30.32 4 31 4 C31 5.65 31 7.3 31 9 C31.66 9 32.32 9 33 9 C33 10.98 33 12.96 33 15 C33.66 15 34.32 15 35 15 C35 16.65 35 18.3 35 20 C35.66 20 36.32 20 37 20 C37 21.98 37 23.96 37 26 C37.66 26 38.32 26 39 26 C39 27.65 39 29.3 39 31 C39.66 31 40.32 31 41 31 C41.124 31.804 41.247 32.609 41.375 33.438 C41.478 33.86 41.478 33.86 42 36 C42.66 36.33 43.32 36.66 44 37 C44 38.65 44 40.3 44 42 C44.66 42 45.32 42 46 42 C46 44.31 46 46.62 46 49 C46.66 49 47.32 49 48 49 C48 50.32 48 51.64 48 53 C48.66 53 49.32 53 50 53 C50.169 53.458 50.169 53.458 51.023 55.773 C51.469 56.962 51.915 58.15 52.375 59.375 C52.595 59.967 52.595 59.967 53.711 62.961 C55 66 55 66 57 68 C57.125 71.625 57.125 71.625 57 75 C57.66 75 58.32 75 59 75 C59.504 76.457 60.003 77.916 60.5 79.375 C60.778 80.187 61.057 80.999 61.344 81.836 C62 84 62 84 62 86 C62.66 86.33 63.32 86.66 64 87 C65.727 90.453 66.22 93.158 66 97 C66.66 97 67.32 97 68 97 C68 98.32 68 99.64 68 101 C68.66 101 69.32 101 70 101 C70.062 101.567 70.062 101.567 70.375 104.438 C70.581 105.613 70.788 106.789 71 108 C71.66 108.33 72.32 108.66 73 109 C73 109.99 73 110.98 73 112 C73.66 112 74.32 112 75 112 C75 114.31 75 116.62 75 119 C75.66 119 76.32 119 77 119 C77 120.32 77 121.64 77 123 C77.66 123 78.32 123 79 123 C79.33 124.65 79.66 126.3 80 128 C80.33 128 80.66 128 81 128 C81 129.98 81 131.96 81 134 C81.66 134 82.32 134 83 134 C83.33 135.65 83.66 137.3 84 139 C84.66 139 85.32 139 86 139 C86 140.98 86 142.96 86 145 C86.66 145 87.32 145 88 145 C88 146.65 88 148.3 88 150 C88.66 150 89.32 150 90 150 C90 151.98 90 153.96 90 156 C90.66 156 91.32 156 92 156 C92 157.65 92 159.3 92 161 C92.66 161 93.32 161 94 161 C94 162.98 94 164.96 94 167 C83.11 167 72.22 167 61 167 C61 165.68 61 164.36 61 163 C60.34 163 59.68 163 59 163 C59 160.69 59 158.38 59 156 C58.34 156 57.68 156 57 156 C57 154.68 57 153.36 57 152 C56.34 152 55.68 152 55 152 C52.781 147.378 51.617 144.232 52 139 C51.34 139 50.68 139 50 139 C50 137.35 50 135.7 50 134 C49.34 134 48.68 134 48 134 C48 132.02 48 130.04 48 128 C47.34 128 46.68 128 46 128 C46 125.69 46 123.38 46 121 C45.34 121 44.68 121 44 121 C44 119.68 44 118.36 44 117 C43.01 117 42.02 117 41 117 C41 114.69 41 112.38 41 110 C40.34 110 39.68 110 39 110 C39 109.34 39 108.68 39 108 C19.86 108 0.72 108 -19 108 C-19.33 109.98 -19.66 111.96 -20 114 C-20.622 115.684 -21.275 117.358 -22 119 C-22.66 119 -23.32 119 -24 119 C-24 120.98 -24 122.96 -24 125 C-24.66 125 -25.32 125 -26 125 C-26 127.31 -26 129.62 -26 132 C-26.66 132 -27.32 132 -28 132 C-28.124 132.701 -28.247 133.403 -28.375 134.125 C-29.038 137.177 -29.972 140.053 -31 143 C-31.66 143 -32.32 143 -33 143 C-33 145.31 -33 147.62 -33 150 C-33.66 150 -34.32 150 -35 150 C-35 151.32 -35 152.64 -35 154 C-35.66 154 -36.32 154 -37 154 C-37 156.31 -37 158.62 -37 161 C-37.66 161 -38.32 161 -39 161 C-39 162.98 -39 164.96 -39 167 C-48.57 167 -58.14 167 -68 167 C-66.333 162 -64.667 157 -63 152 C-62.34 152 -61.68 152 -61 152 C-61 150.68 -61 149.36 -61 148 C-60.34 148 -59.68 148 -59 148 C-59 146.35 -59 144.7 -59 143 C-58.34 143 -57.68 143 -57 143 C-57 141.02 -57 139.04 -57 137 C-56.34 137 -55.68 137 -55 137 C-55 135.35 -55 133.7 -55 132 C-54.01 132 -53.02 132 -52 132 C-52.041 130.928 -52.082 129.855 -52.125 128.75 C-52.011 125.343 -51.787 123.793 -50 121 C-49.34 121 -48.68 121 -48 121 C-48 118.69 -48 116.38 -48 114 C-47.34 114 -46.68 114 -46 114 C-46 112.68 -46 111.36 -46 110 C-45.34 110 -44.68 110 -44 110 C-44 108.02 -44 106.04 -44 104 C-43.34 104 -42.68 104 -42 104 C-42 102.35 -42 100.7 -42 99 C-41.01 99 -40.02 99 -39 99 C-39 97.02 -39 95.04 -39 93 C-38.67 93 -38.34 93 -38 93 C-37.67 91.35 -37.34 89.7 -37 88 C-36.34 88 -35.68 88 -35 88 C-35 86.02 -35 84.04 -35 82 C-34.34 82 -33.68 82 -33 82 C-33 80.35 -33 78.7 -33 77 C-32.34 77 -31.68 77 -31 77 C-31 75.35 -31 73.7 -31 72 C-30.34 72 -29.68 72 -29 72 C-28.67 70.02 -28.34 68.04 -28 66 C-27.34 66 -26.68 66 -26 66 C-26 64.68 -26 63.36 -26 62 C-25.34 62 -24.68 62 -24 62 C-24 59.69 -24 57.38 -24 55 C-23.34 55 -22.68 55 -22 55 C-22 53.68 -22 52.36 -22 51 C-21.34 51 -20.68 51 -20 51 C-19.67 48.69 -19.34 46.38 -19 44 C-18.34 44 -17.68 44 -17 44 C-17 42.68 -17 41.36 -17 40 C-16.34 40 -15.68 40 -15 40 C-15.041 38.928 -15.082 37.855 -15.125 36.75 C-15.011 33.343 -14.787 31.793 -13 29 C-12.34 29 -11.68 29 -11 29 C-11 27.35 -11 25.7 -11 24 C-10.34 24 -9.68 24 -9 24 C-8.67 21.69 -8.34 19.38 -8 17 C-7.34 17 -6.68 17 -6 17 C-6 15.68 -6 14.36 -6 13 C-5.34 13 -4.68 13 -4 13 C-4 11.02 -4 9.04 -4 7 C-3.34 7 -2.68 7 -2 7 C-2 5.35 -2 3.7 -2 2 C-1.34 2 -0.68 2 0 2 C0 1.34 0 0.68 0 0 Z M9 33 C8.67 34.65 8.34 36.3 8 38 C7.67 38 7.34 38 7 38 C7 39.98 7 41.96 7 44 C6.34 44 5.68 44 5 44 C5 46.31 5 48.62 5 51 C4.34 51 3.68 51 3 51 C3 52.32 3 53.64 3 55 C2.01 55 1.02 55 0 55 C0 57.31 0 59.62 0 62 C-0.66 62 -1.32 62 -2 62 C-2 63.32 -2 64.64 -2 66 C-2.66 66 -3.32 66 -4 66 C-4 67.98 -4 69.96 -4 72 C-4.66 72 -5.32 72 -6 72 C-6 73.65 -6 75.3 -6 77 C-6.66 77 -7.32 77 -8 77 C-8 79.31 -8 81.62 -8 84 C3.88 84 15.76 84 28 84 C28.33 82.68 28.66 81.36 29 80 C28.01 79.67 27.02 79.34 26 79 C26 76.69 26 74.38 26 72 C25.34 72 24.68 72 24 72 C24 70.02 24 68.04 24 66 C23.34 66 22.68 66 22 66 C22 64.68 22 63.36 22 62 C21.34 62 20.68 62 20 62 C20 59.69 20 57.38 20 55 C19.34 55 18.68 55 18 55 C18 53.02 18 51.04 18 49 C17.67 49 17.34 49 17 49 C16.67 47.35 16.34 45.7 16 44 C15.01 44 14.02 44 13 44 C13 42.02 13 40.04 13 38 C12.34 38 11.68 38 11 38 C11 36.35 11 34.7 11 33 C10.34 33 9.68 33 9 33 Z " fill="#ffffff" transform="translate(719,4)"/>
<path d="M0 0 C10.56 0 21.12 0 32 0 C31.67 24.09 31.34 48.18 31 73 C31.99 73 32.98 73 34 73 C34 72.01 34 71.02 34 70 C34.66 70 35.32 70 36 70 C36 69.34 36 68.68 36 68 C36.66 68 37.32 68 38 68 C38 67.34 38 66.68 38 66 C38.66 66 39.32 66 40 66 C40 64.68 40 63.36 40 62 C40.66 62 41.32 62 42 62 C42 61.34 42 60.68 42 60 C42.99 60 43.98 60 45 60 C45 59.01 45 58.02 45 57 C45.66 57 46.32 57 47 57 C47 56.34 47 55.68 47 55 C47.66 55 48.32 55 49 55 C49 53.68 49 52.36 49 51 C49.66 51 50.32 51 51 51 C51 50.34 51 49.68 51 49 C51.66 49 52.32 49 53 49 C53 48.34 53 47.68 53 47 C53.66 47 54.32 47 55 47 C55 46.01 55 45.02 55 44 C55.99 44 56.98 44 58 44 C58 43.34 58 42.68 58 42 C58.66 42 59.32 42 60 42 C60 40.68 60 39.36 60 38 C60.66 38 61.32 38 62 38 C62 37.34 62 36.68 62 36 C62.66 36 63.32 36 64 36 C64 35.01 64 34.02 64 33 C64.66 33 65.32 33 66 33 C66.33 31.68 66.66 30.36 67 29 C67.66 29 68.32 29 69 29 C69.33 28.175 69.33 28.175 71 24 C71.66 24 72.32 24 73 24 C73 23.34 73 22.68 73 22 C73.66 22 74.32 22 75 22 C75 21.34 75 20.68 75 20 C75.66 20 76.32 20 77 20 C77.155 19.608 77.155 19.608 77.938 17.625 C79 15 79 15 80 13 C80.66 13 81.32 13 82 13 C82 12.34 82 11.68 82 11 C82.66 11 83.32 11 84 11 C84 10.34 84 9.68 84 9 C84.66 9 85.32 9 86 9 C86.33 7.68 86.66 6.36 87 5 C87.66 5 88.32 5 89 5 C89 4.01 89 3.02 89 2 C89.66 2 90.32 2 91 2 C91 1.34 91 0.68 91 0 C100.9 0 110.8 0 121 0 C121 0.66 121 1.32 121 2 C120.34 2 119.68 2 119 2 C119 2.99 119 3.98 119 5 C118.34 5 117.68 5 117 5 C117 5.66 117 6.32 117 7 C116.34 7 115.68 7 115 7 C115 7.66 115 8.32 115 9 C114.34 9 113.68 9 113 9 C112.67 10.32 112.34 11.64 112 13 C111.34 13 110.68 13 110 13 C110 13.66 110 14.32 110 15 C109.34 15 108.68 15 108 15 C108 15.99 108 16.98 108 18 C107.34 18 106.68 18 106 18 C106 18.66 106 19.32 106 20 C105.34 20 104.68 20 104 20 C104 21.32 104 22.64 104 24 C103.34 24 102.68 24 102 24 C102 24.99 102 25.98 102 27 C101.34 27 100.68 27 100 27 C100 27.66 100 28.32 100 29 C99.01 29 98.02 29 97 29 C97 29.66 97 30.32 97 31 C96.34 31 95.68 31 95 31 C95 31.99 95 32.98 95 34 C94.34 34 93.68 34 93 34 C93 35.32 93 36.64 93 38 C92.34 38 91.68 38 91 38 C91 38.66 91 39.32 91 40 C90.34 40 89.68 40 89 40 C89 40.66 89 41.32 89 42 C88.34 42 87.68 42 87 42 C87 42.66 87 43.32 87 44 C86.01 44 85.02 44 84 44 C84 45.65 84 47.3 84 49 C83.34 49 82.68 49 82 49 C82 49.66 82 50.32 82 51 C81.34 51 80.68 51 80 51 C80 51.66 80 52.32 80 53 C79.34 53 78.68 53 78 53 C78 53.66 78 54.32 78 55 C76.625 56.625 76.625 56.625 75 58 C74.34 58 73.68 58 73 58 C73 59.32 73 60.64 73 62 C72.34 62 71.68 62 71 62 C71 62.66 71 63.32 71 64 C70.34 64 69.68 64 69 64 C69 64.66 69 65.32 69 66 C68.34 66 67.68 66 67 66 C66.835 66.495 66.835 66.495 66 69 C65.34 69 64.68 69 64 69 C64 70.32 64 71.64 64 73 C63.34 73 62.68 73 62 73 C62 74.32 62 75.64 62 77 C62.66 77 63.32 77 64 77 C64 77.66 64 78.32 64 79 C64.66 79 65.32 79 66 79 C67.625 80.375 67.625 80.375 69 82 C69 82.66 69 83.32 69 84 C69.66 84 70.32 84 71 84 C71 84.66 71 85.32 71 86 C71.66 86 72.32 86 73 86 C73 86.99 73 87.98 73 89 C73.66 89 74.32 89 75 89 C78 92.462 78 92.462 78 95 C78.66 95 79.32 95 80 95 C80 95.66 80 96.32 80 97 C80.66 97 81.32 97 82 97 C82 97.66 82 98.32 82 99 C82.66 99 83.32 99 84 99 C84 99.99 84 100.98 84 102 C84.495 102.165 84.495 102.165 87 103 C87.66 103.33 88.32 103.66 89 104 C89 104.66 89 105.32 89 106 C89.66 106 90.32 106 91 106 C91 106.66 91 107.32 91 108 C91.66 108 92.32 108 93 108 C93 108.66 93 109.32 93 110 C93.66 110 94.32 110 95 110 C95 111.65 95 113.3 95 115 C95.66 115 96.32 115 97 115 C97 115.66 97 116.32 97 117 C97.99 117 98.98 117 100 117 C100 117.66 100 118.32 100 119 C100.66 119 101.32 119 102 119 C102 119.66 102 120.32 102 121 C102.66 121 103.32 121 104 121 C104 121.66 104 122.32 104 123 C104.66 123 105.32 123 106 123 C108 125 108 125 108 128 C108.66 128 109.32 128 110 128 C110 128.66 110 129.32 110 130 C110.66 130 111.32 130 112 130 C112.66 130.66 113.32 131.32 114 132 C114.536 132.454 115.073 132.907 115.625 133.375 C117 135 117 135 117 139 C117.66 139 118.32 139 119 139 C119 139.66 119 140.32 119 141 C119.99 141 120.98 141 122 141 C122 141.66 122 142.32 122 143 C122.66 143 123.32 143 124 143 C124.33 143.825 124.33 143.825 126 148 C126.66 148 127.32 148 128 148 C128 148.66 128 149.32 128 150 C128.619 150.144 129.238 150.289 129.875 150.438 C132 151 132 151 134 152 C134 152.66 134 153.32 134 154 C134.99 154 135.98 154 137 154 C137 154.99 137 155.98 137 157 C137.66 157 138.32 157 139 157 C139 157.66 139 158.32 139 159 C139.598 159.144 140.196 159.289 140.812 159.438 C142.562 159.887 144.287 160.429 146 161 C146 161.66 146 162.32 146 163 C146.66 163 147.32 163 148 163 C148 163.66 148 164.32 148 165 C135.46 165 122.92 165 110 165 C110 164.34 110 163.68 110 163 C108.02 163 106.04 163 104 163 C104 162.34 104 161.68 104 161 C102.68 161 101.36 161 100 161 C100 160.34 100 159.68 100 159 C99.01 159 98.02 159 97 159 C97 158.34 97 157.68 97 157 C96.34 157 95.68 157 95 157 C95 156.01 95 155.02 95 154 C94.34 154 93.68 154 93 154 C93 152.68 93 151.36 93 150 C92.01 150 91.02 150 90 150 C90 149.34 90 148.68 90 148 C89.34 148 88.68 148 88 148 C88 147.34 88 146.68 88 146 C87.34 146 86.68 146 86 146 C86 145.34 86 144.68 86 144 C85.34 144 84.68 144 84 144 C84 143.01 84 142.02 84 141 C83.34 141 82.68 141 82 141 C82 140.34 82 139.68 82 139 C81.34 139 80.68 139 80 139 C80 138.34 80 137.68 80 137 C79.01 136.67 78.02 136.34 77 136 C77 135.34 77 134.68 77 134 C76.34 134 75.68 134 75 134 C75 133.34 75 132.68 75 132 C74.34 132 73.68 132 73 132 C73 131.34 73 130.68 73 130 C72.34 130 71.68 130 71 130 C70.67 128.68 70.34 127.36 70 126 C69.34 126 68.68 126 68 126 C67.34 124.35 66.68 122.7 66 121 C65.34 121 64.68 121 64 121 C64 120.34 64 119.68 64 119 C63.34 119 62.68 119 62 119 C62 118.34 62 117.68 62 117 C61.34 117 60.68 117 60 117 C60 116.34 60 115.68 60 115 C59.34 115 58.68 115 58 115 C58 114.01 58 113.02 58 112 C57.01 112 56.02 112 55 112 C55 111.34 55 110.68 55 110 C54.67 109.835 54.67 109.835 53 109 C53 108.01 53 107.02 53 106 C52.34 106 51.68 106 51 106 C51 105.34 51 104.68 51 104 C50.34 104 49.68 104 49 104 C49 103.34 49 102.68 49 102 C48.34 102 47.68 102 47 102 C47 101.01 47 100.02 47 99 C46.34 99 45.68 99 45 99 C45 98.34 45 97.68 45 97 C44.01 97 43.02 97 42 97 C42 96.34 42 95.68 42 95 C41.34 95 40.68 95 40 95 C40 94.34 40 93.68 40 93 C39.34 93 38.68 93 38 93 C37.67 92.67 37.67 92.67 36 91 C36 90.01 36 89.02 36 88 C35.34 88 34.68 88 34 88 C33.67 87.67 33.67 87.67 32 86 C32 112.07 32 138.14 32 165 C21.44 165 10.88 165 0 165 C0 110.55 0 56.1 0 0 Z " fill="#ffffff" transform="translate(0,6)"/>
<path d="M0 0 C9.9 0 19.8 0 30 0 C30 0.33 30 0.66 30 1 C30.825 1.165 30.825 1.165 35 2 C35 7.94 35 13.88 35 20 C34.01 19.67 33.02 19.34 32 19 C30.669 18.658 29.336 18.322 28 18 C28 17.01 28 16.02 28 15 C26.02 15 24.04 15 22 15 C22 14.34 22 13.68 22 13 C16.06 13 10.12 13 4 13 C4 13.66 4 14.32 4 15 C2.68 15.33 1.36 15.66 0 16 C0 17.32 0 18.64 0 20 C-0.66 20 -1.32 20 -2 20 C-2 21.98 -2 23.96 -2 26 C-1.34 26 -0.68 26 0 26 C0 26.99 0 27.98 0 29 C0.66 29 1.32 29 2 29 C2 29.66 2 30.32 2 31 C2.66 31 3.32 31 4 31 C4 31.66 4 32.32 4 33 C4.66 33 5.32 33 6 33 C6 33.66 6 34.32 6 35 C7.65 35 9.3 35 11 35 C11 35.66 11 36.32 11 37 C12.32 37 13.64 37 15 37 C15 37.66 15 38.32 15 39 C16.65 39.33 18.3 39.66 20 40 C20 40.66 20 41.32 20 42 C21.32 42 22.64 42 24 42 C24 42.66 24 43.32 24 44 C25.65 44 27.3 44 29 44 C29 44.66 29 45.32 29 46 C30.32 46.33 31.64 46.66 33 47 C33 47.66 33 48.32 33 49 C33.66 49 34.32 49 35 49 C35 49.66 35 50.32 35 51 C35.66 51 36.32 51 37 51 C37 51.66 37 52.32 37 53 C37.99 53 38.98 53 40 53 C40 53.66 40 54.32 40 55 C40.66 55 41.32 55 42 55 C42 56.65 42 58.3 42 60 C42.66 60 43.32 60 44 60 C44 63.96 44 67.92 44 72 C43.34 72 42.68 72 42 72 C42 73.65 42 75.3 42 77 C41.34 77 40.68 77 40 77 C39.876 77.598 39.753 78.196 39.625 78.812 C39 81 39 81 37 84 C36.34 84 35.68 84 35 84 C35 84.66 35 85.32 35 86 C34.34 86 33.68 86 33 86 C33 86.66 33 87.32 33 88 C30.03 88.99 27.06 89.98 24 91 C24 91.66 24 92.32 24 93 C21.69 93 19.38 93 17 93 C17 93.66 17 94.32 17 95 C13.188 95.088 9.376 95.141 5.562 95.188 C4.493 95.213 3.424 95.238 2.322 95.264 C-6.214 95.342 -12.409 93.796 -20 90 C-20 86.37 -20 82.74 -20 79 C-20.66 79 -21.32 79 -22 79 C-22 77.02 -22 75.04 -22 73 C-21.34 73 -20.68 73 -20 73 C-20 73.66 -20 74.32 -20 75 C-18.35 75 -16.7 75 -15 75 C-15 75.66 -15 76.32 -15 77 C-13.02 77 -11.04 77 -9 77 C-9 77.66 -9 78.32 -9 79 C-7.886 78.979 -6.773 78.959 -5.625 78.938 C-2 79 -2 79 0 80 C2.204 80.23 4.414 80.411 6.625 80.562 C7.219 80.604 7.219 80.604 10.227 80.816 C11.142 80.877 12.057 80.938 13 81 C13 80.34 13 79.68 13 79 C14.98 79 16.96 79 19 79 C19 78.34 19 77.68 19 77 C19.99 77 20.98 77 22 77 C22 76.34 22 75.68 22 75 C22.66 75 23.32 75 24 75 C24 71.37 24 67.74 24 64 C23.34 64 22.68 64 22 64 C22 63.34 22 62.68 22 62 C21.01 62 20.02 62 19 62 C19 61.34 19 60.68 19 60 C18.34 60 17.68 60 17 60 C17 59.01 17 58.02 17 57 C15.68 57 14.36 57 13 57 C13 56.34 13 55.68 13 55 C11.68 55 10.36 55 9 55 C9 54.34 9 53.68 9 53 C7.35 53 5.7 53 4 53 C4 52.34 4 51.68 4 51 C2.68 51 1.36 51 0 51 C0 50.34 0 49.68 0 49 C-1.32 49 -2.64 49 -4 49 C-4 48.34 -4 47.68 -4 47 C-5.65 47 -7.3 47 -9 47 C-9 46.01 -9 45.02 -9 44 C-9.66 44 -10.32 44 -11 44 C-11 43.34 -11 42.68 -11 42 C-11.99 42 -12.98 42 -14 42 C-14 41.34 -14 40.68 -14 40 C-14.66 40 -15.32 40 -16 40 C-16 39.34 -16 38.68 -16 38 C-16.66 38 -17.32 38 -18 38 C-18 37.01 -18 36.02 -18 35 C-18.66 35 -19.32 35 -20 35 C-20 32.36 -20 29.72 -20 27 C-20.66 27 -21.32 27 -22 27 C-22 25.35 -22 23.7 -22 22 C-21.34 22 -20.68 22 -20 22 C-20 19.03 -20 16.06 -20 13 C-19.34 13 -18.68 13 -18 13 C-18 12.34 -18 11.68 -18 11 C-17.34 11 -16.68 11 -16 11 C-16 10.34 -16 9.68 -16 9 C-15.01 9 -14.02 9 -13 9 C-13 8.34 -13 7.68 -13 7 C-12.34 7 -11.68 7 -11 7 C-11 6.34 -11 5.68 -11 5 C-9.35 5 -7.7 5 -6 5 C-6 4.01 -6 3.02 -6 2 C-4.02 2 -2.04 2 0 2 C0 1.34 0 0.68 0 0 Z " fill="#ffffff" transform="translate(548,213)"/>
<path d="M0 0 C5.94 0 11.88 0 18 0 C18 21.78 18 43.56 18 66 C18.66 66 19.32 66 20 66 C20.33 68.31 20.66 70.62 21 73 C21.66 73 22.32 73 23 73 C23 73.66 23 74.32 23 75 C23.66 75 24.32 75 25 75 C25 75.66 25 76.32 25 77 C26.32 77 27.64 77 29 77 C29 77.66 29 78.32 29 79 C36.26 79 43.52 79 51 79 C51 78.34 51 77.68 51 77 C52.32 77 53.64 77 55 77 C55 76.34 55 75.68 55 75 C55.99 75 56.98 75 58 75 C58 74.34 58 73.68 58 73 C58.66 73 59.32 73 60 73 C60 70.69 60 68.38 60 66 C60.33 66 60.66 66 61 66 C61.33 44.22 61.66 22.44 62 0 C66.29 0 70.58 0 75 0 C76.022 3.067 76.127 5.155 76.129 8.367 C76.133 9.466 76.136 10.565 76.139 11.697 C76.138 12.292 76.138 12.292 76.133 15.305 C76.134 16.535 76.135 17.765 76.136 19.032 C76.137 22.312 76.133 25.592 76.127 28.871 C76.124 32.162 76.131 35.452 76.137 38.742 C76.136 41.284 76.135 43.826 76.133 46.367 C76.135 47.537 76.137 48.708 76.139 49.914 C76.117 57.651 75.698 65.295 75 73 C74.34 73 73.68 73 73 73 C73 74.65 73 76.3 73 78 C72.34 78 71.68 78 71 78 C70.856 78.619 70.711 79.238 70.562 79.875 C70 82 70 82 69 84 C68.01 84 67.02 84 66 84 C66 84.66 66 85.32 66 86 C65.34 86 64.68 86 64 86 C64 86.66 64 87.32 64 88 C63.34 88.165 63.34 88.165 60 89 C60 89.66 60 90.32 60 91 C53.324 93.125 47.216 93.406 40.204 93.426 C38.203 93.437 36.202 93.487 34.201 93.537 C25.795 93.583 20.125 92.44 13 88 C11.673 87.32 10.342 86.649 9 86 C9 85.34 9 84.68 9 84 C8.34 84 7.68 84 7 84 C7 83.01 7 82.02 7 81 C6.34 81 5.68 81 5 81 C5 79.68 5 78.36 5 77 C4.34 77 3.68 77 3 77 C2.876 76.031 2.752 75.061 2.625 74.062 C2.419 73.052 2.212 72.041 2 71 C1.34 70.67 0.68 70.34 0 70 C0 46.9 0 23.8 0 0 Z " fill="#ffffff" transform="translate(0,215)"/>
<path d="M0 0 C5.28 0 10.56 0 16 0 C16 0.99 16 1.98 16 3 C16.66 3 17.32 3 18 3 C18 3.66 18 4.32 18 5 C18.66 5 19.32 5 20 5 C20 5.66 20 6.32 20 7 C20.66 7.33 21.32 7.66 22 8 C23.625 9.438 23.625 9.438 25 11 C25 11.66 25 12.32 25 13 C25.66 13 26.32 13 27 13 C27 13.99 27 14.98 27 16 C27.66 16 28.32 16 29 16 C29 17.32 29 18.64 29 20 C29.66 20 30.32 20 31 20 C31 20.66 31 21.32 31 22 C31.639 22.268 32.279 22.536 32.938 22.812 C35 24 35 24 36 27 C36.66 27 37.32 27 38 27 C38 28.32 38 29.64 38 31 C38.66 31 39.32 31 40 31 C40 31.66 40 32.32 40 33 C40.66 33 41.32 33 42 33 C42 33.99 42 34.98 42 36 C42.66 36 43.32 36 44 36 C47 39.462 47 39.462 47 42 C47.66 42 48.32 42 49 42 C49 42.66 49 43.32 49 44 C49.66 44 50.32 44 51 44 C51 44.99 51 45.98 51 47 C51.66 47 52.32 47 53 47 C53 48.32 53 49.64 53 51 C53.66 51 54.32 51 55 51 C55 51.66 55 52.32 55 53 C55.66 53 56.32 53 57 53 C57 53.66 57 54.32 57 55 C57.66 55 58.32 55 59 55 C59 55.99 59 56.98 59 58 C59.99 58 60.98 58 62 58 C62 59.32 62 60.64 62 62 C62.66 62 63.32 62 64 62 C64 41.54 64 21.08 64 0 C68.95 0 73.9 0 79 0 C79 29.7 79 59.4 79 90 C76.116 91.442 73.583 91.094 70.375 91.062 C69.186 91.053 67.998 91.044 66.773 91.035 C66.316 91.029 66.316 91.029 64 91 C64 90.34 64 89.68 64 89 C63.34 89 62.68 89 62 89 C62 88.01 62 87.02 62 86 C61.01 86 60.02 86 59 86 C59 85.34 59 84.68 59 84 C58.34 84 57.68 84 57 84 C55 81 55 81 55 77 C54.34 77 53.68 77 53 77 C53 76.34 53 75.68 53 75 C52.34 75 51.68 75 51 75 C51 74.34 51 73.68 51 73 C50.34 73 49.68 73 49 73 C48.34 70.69 47.68 68.38 47 66 C46.01 66 45.02 66 44 66 C44 65.34 44 64.68 44 64 C43.34 64 42.68 64 42 64 C42 62.68 42 61.36 42 60 C41.34 60 40.68 60 40 60 C40 59.34 40 58.68 40 58 C39.34 58 38.68 58 38 58 C38 57.01 38 56.02 38 55 C37.34 55 36.68 55 36 55 C36 54.34 36 53.68 36 53 C35.01 53 34.02 53 33 53 C33 51.68 33 50.36 33 49 C32.34 49 31.68 49 31 49 C31 48.34 31 47.68 31 47 C30.34 47 29.68 47 29 47 C29 46.34 29 45.68 29 45 C28.34 45 27.68 45 27 45 C27 44.01 27 43.02 27 42 C26.34 42 25.68 42 25 42 C24.67 40.68 24.34 39.36 24 38 C23.34 38 22.68 38 22 38 C22 37.34 22 36.68 22 36 C21.34 36 20.68 36 20 36 C20 35.01 20 34.02 20 33 C19.34 33 18.68 33 18 33 C17.67 31.68 17.34 30.36 17 29 C16.34 29 15.68 29 15 29 C15 28.34 15 27.68 15 27 C14.34 27 13.68 27 13 27 C13 48.12 13 69.24 13 91 C8.71 91 4.42 91 0 91 C0 60.97 0 30.94 0 0 Z " fill="#ffffff" transform="translate(108,215)"/>
<path d="M0 0 C5.94 0 11.88 0 18 0 C18 29.7 18 59.4 18 90 C12.625 92.687 6.009 91 0 91 C0 60.97 0 30.94 0 0 Z " fill="#ffffff" transform="translate(220,215)"/>
<path d="M0 0 C6.27 0 12.54 0 19 0 C19 0.99 19 1.98 19 3 C19.99 3 20.98 3 22 3 C22 4.98 22 6.96 22 9 C22.66 9 23.32 9 24 9 C24 11.31 24 13.62 24 16 C24.66 16 25.32 16 26 16 C26 17.98 26 19.96 26 22 C26.66 22 27.32 22 28 22 C28 23.65 28 25.3 28 27 C28.66 27 29.32 27 30 27 C30 28.98 30 30.96 30 33 C30.66 33 31.32 33 32 33 C32.165 34.155 32.165 34.155 33 40 C33.66 40 34.32 40 35 40 C35.165 40.99 35.165 40.99 36 46 C36.33 46 36.66 46 37 46 C37 48.31 37 50.62 37 53 C37.66 53 38.32 53 39 53 C39 54.65 39 56.3 39 58 C39.66 58 40.32 58 41 58 C41.165 58.99 41.165 58.99 42 64 C42.99 64 43.98 64 45 64 C45.33 62.68 45.66 61.36 46 60 C46.66 60 47.32 60 48 60 C48 57.69 48 55.38 48 53 C48.66 53 49.32 53 50 53 C50.062 52.577 50.062 52.577 50.375 50.438 C51.028 46.848 51.952 43.492 53 40 C53.66 40 54.32 40 55 40 C55 38.35 55 36.7 55 35 C55.66 35 56.32 35 57 35 C57 33.02 57 31.04 57 29 C57.66 29 58.32 29 59 29 C59 26.69 59 24.38 59 22 C59.66 22 60.32 22 61 22 C61 20.02 61 18.04 61 16 C61.99 16 62.98 16 64 16 C64 14.35 64 12.7 64 11 C64.66 11 65.32 11 66 11 C66 9.02 66 7.04 66 5 C66.66 5 67.32 5 68 5 C68 3.35 68 1.7 68 0 C72.95 0 77.9 0 83 0 C83 1.65 83 3.3 83 5 C82.34 5 81.68 5 81 5 C81 6.98 81 8.96 81 11 C80.34 11 79.68 11 79 11 C79 12.65 79 14.3 79 16 C78.34 16 77.68 16 77 16 C77 17.98 77 19.96 77 22 C76.01 22 75.02 22 74 22 C74 23.98 74 25.96 74 28 C73.67 28 73.34 28 73 28 C72.835 28.825 72.835 28.825 72 33 C71.34 33 70.68 33 70 33 C70 35.31 70 37.62 70 40 C69.34 40 68.68 40 68 40 C68 41.65 68 43.3 68 45 C67.34 45 66.68 45 66 45 C66 46.98 66 48.96 66 51 C65.34 51 64.68 51 64 51 C64 52.32 64 53.64 64 55 C63.01 55 62.02 55 61 55 C61 57.31 61 59.62 61 62 C60.34 62 59.68 62 59 62 C59 63.98 59 65.96 59 68 C58.34 68 57.68 68 57 68 C57 69.65 57 71.3 57 73 C56.34 73 55.68 73 55 73 C55 74.98 55 76.96 55 79 C54.34 79 53.68 79 53 79 C53 80.65 53 82.3 53 84 C52.34 84 51.68 84 51 84 C50.856 84.969 50.711 85.939 50.562 86.938 C50 90 50 90 49 91 C46.711 91.126 44.417 91.176 42.125 91.188 C40.869 91.202 39.614 91.216 38.32 91.23 C35 91 35 91 32 89 C30.233 85.558 29.78 82.846 30 79 C29.34 79 28.68 79 28 79 C28 77.02 28 75.04 28 73 C27.34 73 26.68 73 26 73 C26 70.69 26 68.38 26 66 C25.34 66 24.68 66 24 66 C24 64.68 24 63.36 24 62 C23.34 62 22.68 62 22 62 C22 59.69 22 57.38 22 55 C21.01 55 20.02 55 19 55 C19 53.02 19 51.04 19 49 C18.34 49 17.68 49 17 49 C17 47.35 17 45.7 17 44 C16.34 44 15.68 44 15 44 C15 42.02 15 40.04 15 38 C14.34 38 13.68 38 13 38 C13 35.69 13 33.38 13 31 C12.34 31 11.68 31 11 31 C11 29.35 11 27.7 11 26 C10.34 26 9.68 26 9 26 C9 24.02 9 22.04 9 20 C8.01 20 7.02 20 6 20 C6 17.69 6 15.38 6 13 C5.34 13 4.68 13 4 13 C4 11.02 4 9.04 4 7 C3.34 7 2.68 7 2 7 C2 5.68 2 4.36 2 3 C1.34 3 0.68 3 0 3 C0 2.01 0 1.02 0 0 Z " fill="#ffffff" transform="translate(258,215)"/>
<path d="M0 0 C17.49 0 34.98 0 53 0 C53 4.29 53 8.58 53 13 C41.45 13 29.9 13 18 13 C18 20.26 18 27.52 18 35 C27.24 35 36.48 35 46 35 C46 39.62 46 44.24 46 49 C36.76 49 27.52 49 18 49 C18 58.24 18 67.48 18 77 C18.66 77 19.32 77 20 77 C20 76.34 20 75.68 20 75 C24.29 75 28.58 75 33 75 C33 75.66 33 76.32 33 77 C41.58 77 50.16 77 59 77 C58.479 81.685 57.925 86.377 57 91 C38.19 91 19.38 91 0 91 C0 60.97 0 30.94 0 0 Z " fill="#ffffff" transform="translate(361,215)"/>
<path d="M0 0 C13.86 0 27.72 0 42 0 C42 0.99 42 1.98 42 3 C44.31 3 46.62 3 49 3 C49.66 4.32 50.32 5.64 51 7 C51.66 7 52.32 7 53 7 C53 7.66 53 8.32 53 9 C53.66 9 54.32 9 55 9 C55 9.66 55 10.32 55 11 C55.99 11 56.98 11 58 11 C58 12.65 58 14.3 58 16 C58.66 16 59.32 16 60 16 C60 20.95 60 25.9 60 31 C59.34 31 58.68 31 58 31 C58 32.65 58 34.3 58 36 C57.34 36 56.68 36 56 36 C55.835 36.33 55.835 36.33 55 38 C54.34 38 53.68 38 53 38 C53 38.66 53 39.32 53 40 C52.34 40 51.68 40 51 40 C51 40.66 51 41.32 51 42 C50.34 42 49.68 42 49 42 C49 42.99 49 43.98 49 45 C47.68 45 46.36 45 45 45 C45 45.66 45 46.32 45 47 C44.01 47 43.02 47 42 47 C42 47.66 42 48.32 42 49 C42.66 49 43.32 49 44 49 C44 49.66 44 50.32 44 51 C44.33 51.165 44.33 51.165 46 52 C46.33 52.99 46.66 53.98 47 55 C47.66 55 48.32 55 49 55 C49 55.99 49 56.98 49 58 C49.66 58 50.32 58 51 58 C51 58.66 51 59.32 51 60 C51.66 60 52.32 60 53 60 C53 61.32 53 62.64 53 64 C53.66 64 54.32 64 55 64 C55 64.66 55 65.32 55 66 C55.99 66 56.98 66 58 66 C58 66.66 58 67.32 58 68 C58.66 68 59.32 68 60 68 C60 68.66 60 69.32 60 70 C60.66 70 61.32 70 62 70 C64 73 64 73 64 77 C64.66 77 65.32 77 66 77 C66 77.66 66 78.32 66 79 C66.392 79.155 66.392 79.155 68.375 79.938 C71 81 71 81 73 82 C73 82.66 73 83.32 73 84 C73.66 84 74.32 84 75 84 C75 84.66 75 85.32 75 86 C75.66 86 76.32 86 77 86 C77 86.66 77 87.32 77 88 C77.495 88.165 77.495 88.165 80 89 C79.67 89.66 79.34 90.32 79 91 C72.73 91 66.46 91 60 91 C60 90.34 60 89.68 60 89 C58.35 89 56.7 89 55 89 C55 88.01 55 87.02 55 86 C53.68 86 52.36 86 51 86 C51 84.68 51 83.36 51 82 C50.34 82 49.68 82 49 82 C49 81.34 49 80.68 49 80 C48.34 80 47.68 80 47 80 C47 79.01 47 78.02 47 77 C46.34 77 45.68 77 45 77 C45 76.34 45 75.68 45 75 C44.01 74.67 43.02 74.34 42 74 C42 73.01 42 72.02 42 71 C41.34 71 40.68 71 40 71 C40 70.01 40 69.02 40 68 C39.34 68 38.68 68 38 68 C38 67.34 38 66.68 38 66 C37.34 66 36.68 66 36 66 C35.67 64.68 35.34 63.36 35 62 C34.34 62 33.68 62 33 62 C33 61.34 33 60.68 33 60 C32.34 60 31.68 60 31 60 C31 59.34 31 58.68 31 58 C30.34 58 29.68 58 29 58 C29 57.01 29 56.02 29 55 C28.34 54.67 27.68 54.34 27 54 C26.67 53.01 26.34 52.02 26 51 C25.34 51 24.68 51 24 51 C24 50.34 24 49.68 24 49 C23.34 49 22.68 49 22 49 C22 48.34 22 47.68 22 47 C21.34 47 20.68 47 20 47 C20 45.35 20 43.7 20 42 C20.825 41.835 20.825 41.835 25 41 C25 40.67 25 40.34 25 40 C27.64 40 30.28 40 33 40 C33 39.34 33 38.68 33 38 C37.385 35 37.385 35 40 35 C41.049 31.439 41.304 27.945 41.562 24.25 C41.646 23.08 41.73 21.909 41.816 20.703 C41.847 20.257 41.847 20.257 42 18 C41.34 18 40.68 18 40 18 C40 17.34 40 16.68 40 16 C38.35 16 36.7 16 35 16 C35 15.01 35 14.02 35 13 C29.39 13 23.78 13 18 13 C18 38.74 18 64.48 18 91 C12.06 91 6.12 91 0 91 C0 60.97 0 30.94 0 0 Z " fill="#ffffff" transform="translate(442,215)"/>
<path d="M0 0 C5.94 0 11.88 0 18 0 C18.023 11.717 18.041 23.435 18.052 35.152 C18.057 40.592 18.064 46.032 18.075 51.472 C18.086 56.718 18.092 61.963 18.095 67.209 C18.097 69.215 18.1 71.221 18.106 73.227 C18.113 76.026 18.114 78.825 18.114 81.625 C18.117 82.463 18.121 83.301 18.124 84.164 C18.114 89.886 18.114 89.886 17 91 C14.467 91.073 11.969 91.092 9.438 91.062 C6.983 91.042 4.529 91.021 2 91 C1.67 82.75 1.34 74.5 1 66 C0.67 66 0.34 66 0 66 C0 44.22 0 22.44 0 0 Z " fill="#ffffff" transform="translate(616,215)"/>
<path d="M0 0 C21.78 0 43.56 0 66 0 C66 4.29 66 8.58 66 13 C58.08 13 50.16 13 42 13 C42.005 14.128 42.005 14.128 42.032 19.837 C42.065 27.285 42.087 34.733 42.104 42.181 C42.114 46.697 42.128 51.214 42.151 55.73 C42.173 60.087 42.185 64.444 42.19 68.802 C42.193 70.466 42.201 72.129 42.211 73.793 C42.226 76.12 42.228 78.447 42.227 80.775 C42.234 81.465 42.241 82.156 42.249 82.867 C42.233 86.486 42.07 87.894 40 91 C34.72 91 29.44 91 24 91 C24 65.26 24 39.52 24 13 C16.08 13 8.16 13 0 13 C0 8.71 0 4.42 0 0 Z " fill="#ffffff" transform="translate(658,215)"/>
<path d="M0 0 C6.6 0 13.2 0 20 0 C20 1.65 20 3.3 20 5 C20.66 5 21.32 5 22 5 C22 5.66 22 6.32 22 7 C22.66 7 23.32 7 24 7 C24 8.32 24 9.64 24 11 C24.66 11 25.32 11 26 11 C26 11.66 26 12.32 26 13 C26.66 13 27.32 13 28 13 C28 14.65 28 16.3 28 18 C28.99 18 29.98 18 31 18 C31 18.66 31 19.32 31 20 C31.66 20 32.32 20 33 20 C33 21.32 33 22.64 33 24 C33.66 24 34.32 24 35 24 C35 25.32 35 26.64 35 28 C35.66 28 36.32 28 37 28 C37 28.99 37 29.98 37 31 C37.66 31 38.32 31 39 31 C39.165 31.66 39.165 31.66 40 35 C41.32 35 42.64 35 44 35 C44 33.68 44 32.36 44 31 C44.66 31 45.32 31 46 31 C46 29.68 46 28.36 46 27 C46.66 27 47.32 27 48 27 C48 26.01 48 25.02 48 24 C48.66 24 49.32 24 50 24 C50.33 22.68 50.66 21.36 51 20 C51.66 20 52.32 20 53 20 C53 19.34 53 18.68 53 18 C53.66 18 54.32 18 55 18 C55 16.35 55 14.7 55 13 C55.66 13 56.32 13 57 13 C57 12.34 57 11.68 57 11 C57.66 11 58.32 11 59 11 C59 9.68 59 8.36 59 7 C59.99 7 60.98 7 62 7 C62.66 4.69 63.32 2.38 64 0 C69.61 0 75.22 0 81 0 C81 0.99 81 1.98 81 3 C80.34 3 79.68 3 79 3 C79 4.32 79 5.64 79 7 C78.34 7 77.68 7 77 7 C77 7.66 77 8.32 77 9 C76.34 9 75.68 9 75 9 C75 10.32 75 11.64 75 13 C74.34 13 73.68 13 73 13 C73 13.99 73 14.98 73 16 C72.01 16 71.02 16 70 16 C70 17.32 70 18.64 70 20 C69.34 20 68.68 20 68 20 C68 20.66 68 21.32 68 22 C67.34 22 66.68 22 66 22 C66 23.65 66 25.3 66 27 C65.34 27 64.68 27 64 27 C64 27.66 64 28.32 64 29 C63.34 29 62.68 29 62 29 C62 30.32 62 31.64 62 33 C61.34 33 60.68 33 60 33 C59.691 33.784 59.381 34.567 59.062 35.375 C58 38 58 38 57 40 C56.34 40 55.68 40 55 40 C55 40.66 55 41.32 55 42 C54.34 42 53.68 42 53 42 C53 43.65 53 45.3 53 47 C52.34 47 51.68 47 51 47 C51 47.66 51 48.32 51 49 C50.34 49 49.68 49 49 49 C48.67 62.86 48.34 76.72 48 91 C33 91 33 91 31 90 C31 76.47 31 62.94 31 49 C30.01 49 29.02 49 28 49 C28 47.68 28 46.36 28 45 C27.34 45 26.68 45 26 45 C26 44.01 26 43.02 26 42 C25.34 42 24.68 42 24 42 C24 40.68 24 39.36 24 38 C23.34 38 22.68 38 22 38 C22 37.01 22 36.02 22 35 C21.34 35 20.68 35 20 35 C20 33.68 20 32.36 20 31 C19.34 31 18.68 31 18 31 C15 26.615 15 26.615 15 24 C14.34 24 13.68 24 13 24 C13 22.68 13 21.36 13 20 C12.34 20 11.68 20 11 20 C11 19.34 11 18.68 11 18 C10.34 18 9.68 18 9 18 C9 16.35 9 14.7 9 13 C8.34 13 7.68 13 7 13 C7 12.34 7 11.68 7 11 C6.34 11 5.68 11 5 11 C5 9.68 5 8.36 5 7 C4.34 7 3.68 7 3 7 C3 6.34 3 5.68 3 5 C2.01 5 1.02 5 0 5 C0 3.35 0 1.7 0 0 Z " fill="#ffffff" transform="translate(732,215)"/>
</svg>
